<svg xmlns="http://www.w3.org/2000/svg" viewBox="0 0 283.14 86.13"><title>berman-logo-white</title><g id="Layer_2" data-name="Layer 2"><g id="Layer_1-2" data-name="Layer 1"><path d="M169.94,0a12.86,12.86,0,0,0-11.08,6,12.93,12.93,0,0,0-11.21-6c-8.75,0-14.18,6.8-14.18,17.76V64.7h50.78V17.76C184.25,6.8,178.82,0,169.94,0Zm7.48,17.62V58.3H162.36V16.21c.36-4.11,1.91-9,7.24-9h.13C174.55,7.21,177.42,11.1,177.42,17.62Zm-22-1.5V58.3H140.31V17.62c0-6.52,2.87-10.41,7.68-10.41h.14C153.46,7.21,155,12.1,155.37,16.12Z" style="fill:#f26a29"/><rect x="190.78" y="58.59" width="90.72" height="6.11" style="fill:#f26a29"/><rect y="58.59" width="127.19" height="6.11" style="fill:#f26a29"/><path d="M0,2.58H20c5.1,0,9.12,1.4,11.67,4a10,10,0,0,1,3,7.4v.13c0,5.35-3.07,8.22-6.38,9.94,5.23,1.79,8.86,4.79,8.86,10.84V35c0,8-6.56,12.24-16.51,12.24H0ZM18.43,21.39c5,0,8.41-2,8.41-6.06V15.2c0-3.5-2.8-5.67-7.84-5.67H7.71V21.39Zm2.29,18.87c5.36,0,8.61-2.1,8.61-6.12V34c0-3.76-3-6-9.18-6H7.71V40.26Z" style="fill:#fff"/><path d="M46,2.58H79.12v7H53.88V21.2H76.25v7H53.88v12H79.44v7H46Z" style="fill:#fff"/><path d="M88.75,2.58h19.9c5.61,0,10,1.66,12.88,4.46a13.54,13.54,0,0,1,3.69,9.63v.13c0,7.33-4.4,11.73-10.64,13.52l12,16.89h-9.25l-11-15.56H96.6V47.21H88.75Zm19.32,22.13c5.61,0,9.18-2.94,9.18-7.47v-.12c0-4.79-3.44-7.4-9.24-7.4H96.6v15Z" style="fill:#fff"/><path d="M208.05,2.26h7.26l19.64,45h-8.29l-4.52-10.77H201l-4.59,10.77h-8Zm11.22,27.23-7.72-17.86L203.9,29.49Z" style="fill:#fff"/><path d="M242.6,2.58h7.27l23.91,30.86V2.58h7.72V47.21h-6.57L250.32,15.46V47.21H242.6Z" style="fill:#fff"/><path d="M.11,76.78H1.83l2.8,4.35,2.8-4.35H9.15V86H7.53V79.38l-2.9,4.34H4.57L1.7,79.41V86H.11Z" style="fill:#fff"/><path d="M12.17,76.78H19v1.45h-5.2v2.39H18.4v1.44H13.79v2.47h5.26V86H12.17Z" style="fill:#fff"/><path d="M21.63,76.78h1.61V84.5h4.84V86H21.63Z" style="fill:#fff"/><path d="M28.12,76.78h1.79l2.77,7.07,2.75-7.07h1.75L33.36,86H31.94Z" style="fill:#fff"/><path d="M39.51,76.78h1.61V86H39.51Z" style="fill:#fff"/><path d="M44.24,76.78h1.49l4.93,6.36V76.78h1.59V86H50.9l-5.07-6.54V86H44.24Z" style="fill:#fff"/><path d="M59,84.62,60,83.53a2.3,2.3,0,0,0,1.85,1.08c.87,0,1.46-.58,1.46-1.8v-6H65v6.07a3.32,3.32,0,0,1-.85,2.44,3.06,3.06,0,0,1-2.23.82A3.45,3.45,0,0,1,59,84.62Z" style="fill:#fff"/><path d="M67.39,84.17h1.74V86H67.39Z" style="fill:#fff"/><path d="M75.46,76.78h4.13a3.28,3.28,0,0,1,2.4.82,2,2,0,0,1,.62,1.52v0a2.18,2.18,0,0,1-1.31,2,2.26,2.26,0,0,1,1.82,2.24v0c0,1.64-1.35,2.52-3.4,2.52H75.46Zm3.8,3.87c1,0,1.73-.4,1.73-1.24v0c0-.72-.57-1.17-1.61-1.17H77.05v2.44Zm.47,3.89c1.11,0,1.78-.43,1.78-1.26v0c0-.78-.62-1.24-1.9-1.24H77.05v2.52Z" style="fill:#fff"/><path d="M85.61,76.78h6.81v1.45h-5.2v2.39h4.61v1.44H87.22v2.47h5.27V86H85.61Z" style="fill:#fff"/><path d="M95.07,76.78h4.09a3.7,3.7,0,0,1,2.66.92,2.8,2.8,0,0,1,.76,2v0a2.75,2.75,0,0,1-2.19,2.78L102.87,86H101l-2.26-3.2h-2V86H95.07Zm4,4.56c1.15,0,1.89-.61,1.89-1.54v0c0-1-.71-1.53-1.91-1.53H96.68v3.09Z" style="fill:#fff"/><path d="M105.22,76.78h1.72l2.8,4.35,2.8-4.35h1.72V86h-1.62V79.38l-2.9,4.34h0l-2.88-4.31V86h-1.59Z" style="fill:#fff"/><path d="M120.54,76.71H122l4,9.26h-1.71l-.93-2.22h-4.35L118.15,86h-1.66Zm2.31,5.61-1.59-3.67-1.58,3.67Z" style="fill:#fff"/><path d="M128.32,76.78h1.49l4.93,6.36V76.78h1.59V86H135l-5.07-6.54V86h-1.59Z" style="fill:#fff"/><path d="M145,76.78h1.62V80.6H151V76.78h1.62V86H151V82.1h-4.38V86H145Z" style="fill:#fff"/><path d="M155.59,76.78h6.82v1.45h-5.2v2.39h4.61v1.44h-4.61v2.47h5.26V86h-6.88Z" style="fill:#fff"/><path d="M165.05,76.78h4.12a3.33,3.33,0,0,1,2.41.82,2.06,2.06,0,0,1,.62,1.52v0a2.19,2.19,0,0,1-1.32,2,2.26,2.26,0,0,1,1.83,2.24v0c0,1.64-1.36,2.52-3.41,2.52h-4.25Zm3.8,3.87c1,0,1.73-.4,1.73-1.24v0c0-.72-.58-1.17-1.62-1.17h-2.32v2.44Zm.47,3.89c1.1,0,1.77-.43,1.77-1.26v0c0-.78-.61-1.24-1.89-1.24h-2.56v2.52Z" style="fill:#fff"/><path d="M175.19,76.78h4.1a3.7,3.7,0,0,1,2.65.92,2.76,2.76,0,0,1,.77,2v0a2.75,2.75,0,0,1-2.2,2.78L183,86h-1.9l-2.26-3.2h-2V86h-1.62Zm4,4.56c1.16,0,1.89-.61,1.89-1.54v0c0-1-.71-1.53-1.9-1.53h-2.35v3.09Z" style="fill:#fff"/><path d="M185.35,76.78h6.81v1.45H187v2.39h4.61v1.44H187v2.47h5.27V86h-6.88Z" style="fill:#fff"/><path d="M194.09,76.78h1.75L198,83.6l2.26-6.85h1.36l2.26,6.85,2.19-6.82h1.7L204.6,86h-1.39L201,79.43,198.69,86H197.3Z" style="fill:#fff"/><path d="M216.17,76.71h1.49L221.71,86H220l-.93-2.22h-4.35L213.78,86h-1.66Zm2.31,5.61-1.59-3.67-1.58,3.67Z" style="fill:#fff"/><path d="M222.25,81.4v0A4.65,4.65,0,0,1,227,76.62a4.82,4.82,0,0,1,3.6,1.43l-1,1.2A3.69,3.69,0,0,0,227,78.11a3.08,3.08,0,0,0-3,3.24v0a3.11,3.11,0,0,0,3,3.27,3.59,3.59,0,0,0,2.64-1.2l1,1a4.74,4.74,0,0,1-3.73,1.63A4.62,4.62,0,0,1,222.25,81.4Z" style="fill:#fff"/><path d="M235.35,76.71h1.5L240.9,86h-1.71l-.93-2.22h-4.35L233,86h-1.66Zm2.32,5.61-1.59-3.67-1.58,3.67Z" style="fill:#fff"/><path d="M243.06,76.78h3.43a4.58,4.58,0,0,1,4.88,4.57v0A4.59,4.59,0,0,1,246.49,86h-3.43Zm3.43,7.72a3,3,0,0,0,3.19-3.1v0a3,3,0,0,0-3.19-3.13h-1.82V84.5Z" style="fill:#fff"/><path d="M253.63,76.78h6.82v1.45h-5.2v2.39h4.61v1.44h-4.61v2.47h5.27V86h-6.89Z" style="fill:#fff"/><path d="M263.09,76.78h1.72l2.8,4.35,2.8-4.35h1.72V86h-1.62V79.38l-2.9,4.34h-.05l-2.88-4.31V86h-1.59Z" style="fill:#fff"/><path d="M277.86,82.35l-3.65-5.57h1.9l2.58,4.07,2.6-4.07h1.85l-3.65,5.53V86h-1.63Z" style="fill:#fff"/></g></g></svg>