<svg width="123" height="28" viewBox="0 0 123 28" fill="none" xmlns="http://www.w3.org/2000/svg">
<path d="M49.81 11.164C49.486 11.2 49.18 11.236 48.892 11.236C47.992 11.236 47.236 10.948 46.588 10.948C46.48 10.948 46.372 11.002 46.336 11.002C46.084 10.93 45.994 10.912 45.976 10.912C45.94 10.912 45.958 10.93 45.94 10.93C45.904 10.93 45.85 10.93 45.652 10.858C45.022 10.642 44.428 10.804 43.744 10.516C43.906 9.76 44.5 9.256 44.806 8.554C44.626 8.356 44.536 8.104 44.158 8.104C43.798 8.482 43.636 8.824 43.384 9.274C43.078 9.706 42.646 10.264 42.376 10.408C41.134 10.3 40.576 10.192 39.766 10.192C39.406 10.192 38.974 10.264 38.47 10.264C38.362 10.264 38.254 10.264 38.164 10.264C37.804 10.264 37.678 10.462 37.246 10.462C37.174 10.462 37.102 10.462 37.03 10.462C36.67 10.462 36.526 10.606 36.202 10.66C35.014 10.912 34.114 10.948 33.322 11.488C32.674 11.488 32.062 11.902 31.63 12.118C31.504 12.19 31.306 12.172 31.216 12.244C31.126 12.298 31.072 12.46 30.982 12.514C30.928 12.568 30.82 12.55 30.766 12.604C30.568 12.712 30.334 13.234 30.334 13.414C30.334 13.576 30.388 13.72 30.388 13.936C30.676 14.026 30.982 14.188 31.306 14.188C31.414 14.188 31.738 14.17 31.738 14.044C31.738 13.612 31.108 13.792 31.108 13.378C31.108 12.964 31.594 12.892 31.63 12.874C31.828 12.73 31.99 12.55 32.206 12.46C32.53 12.334 32.908 12.244 32.854 12.244C32.89 12.244 32.926 12.244 32.962 12.244C33.124 12.244 33.052 12.118 33.124 12.064C33.934 11.704 34.708 11.524 35.176 11.38C36.544 10.93 37.876 10.75 39.352 10.75C40.252 10.75 41.224 10.822 42.268 10.948H42.286C42.286 10.948 42.286 10.948 42.286 10.966C42.286 11.038 42.016 11.434 42.016 11.614C41.98 11.992 41.656 12.568 41.512 12.892C41.386 13.162 41.296 13.414 41.17 13.648C41.17 13.9 41.026 13.918 40.936 14.08C40.864 14.332 40.648 15.214 40.576 15.43C40.54 15.574 40.414 15.574 40.414 15.772C40.414 15.808 40.414 15.844 40.414 15.898C40.414 16.15 40.234 16.258 40.18 16.474C40.126 16.69 40.126 16.942 40.072 17.158C39.964 17.572 39.802 17.932 39.73 18.364C39.622 18.94 39.55 19.75 39.55 20.434C39.55 21.136 39.622 21.622 39.73 21.928C39.82 22.18 40.126 22.27 40.108 22.504C40.108 22.522 40.108 22.54 40.108 22.558C40.126 22.504 40.18 22.486 40.234 22.486C40.306 22.486 40.396 22.504 40.468 22.504C40.594 22.504 40.648 22.342 40.648 22.27C40.648 22.108 40.486 21.964 40.414 21.82C40.432 21.766 40.432 21.712 40.432 21.676C40.432 21.46 40.306 21.388 40.306 21.172C40.306 21.136 40.306 21.082 40.324 21.028C40.306 20.974 40.288 20.902 40.288 20.848C40.288 20.794 40.288 20.722 40.306 20.668C40.306 20.596 40.306 20.524 40.306 20.452C40.306 20.002 40.468 19.786 40.468 19.156C40.468 19.12 40.576 18.778 40.576 18.76C40.81 16.852 41.53 15.268 41.89 14.296C42.214 13.504 42.538 12.82 42.916 12.064C43.006 11.812 43.114 11.236 43.474 11.164C45.364 11.29 44.914 11.29 46.768 11.47C46.876 11.488 46.984 11.488 47.074 11.488C47.416 11.488 47.668 11.434 47.938 11.434C48.082 11.47 48.208 11.56 48.352 11.56C48.586 11.542 48.856 11.434 49.126 11.434C49.396 11.434 49.63 11.524 49.864 11.524C49.972 11.524 50.314 11.488 50.314 11.308C50.314 11.146 50.17 11.272 49.81 11.164ZM53.327 16.924L53.345 16.906H53.327C53.291 16.906 52.751 17.392 52.427 17.626C51.923 17.752 52.193 17.734 51.851 17.95C51.473 18.112 51.185 18.454 50.681 18.508C50.681 18.526 50.681 18.526 50.681 18.544C50.681 18.706 50.033 18.976 49.709 19.138C48.791 19.624 49.097 19.498 48.323 19.894C48.323 19.894 48.287 19.894 48.269 19.894C48.233 19.894 48.197 19.894 48.161 19.894C48.017 19.894 47.729 20.128 47.333 20.128C47.297 20.128 47.243 20.11 47.207 20.11C46.829 20.29 46.127 20.578 45.533 20.578C44.903 20.578 44.507 20.128 44.507 19.444C44.507 19.192 44.597 18.814 44.759 18.436C44.759 18.436 44.777 18.436 44.795 18.436C44.759 18.436 46.019 18.148 46.019 18.076C46.019 18.058 46.001 18.058 45.983 18.058C45.893 18.058 45.569 18.148 45.461 18.148C45.443 18.148 45.443 18.148 45.443 18.13L44.993 18.148L45.821 17.95L45.947 17.806L46.847 17.374C47.009 17.302 47.441 17.05 47.513 17.05C47.441 17.158 46.451 17.698 46.343 17.824C46.631 17.806 46.793 17.626 46.973 17.554C47.369 17.428 47.765 16.996 47.783 16.978C48.071 16.78 48.287 16.51 48.287 16.51C48.305 16.474 48.323 16.474 48.323 16.456H48.305C48.305 16.456 48.287 16.456 48.269 16.456C48.269 16.456 48.287 16.438 48.341 16.366C48.503 16.168 48.539 16.078 48.539 16.006C48.539 15.736 48.125 15.178 47.531 15.178C46.901 15.178 46.487 15.556 46.127 15.844C46.055 15.88 45.929 15.898 45.857 15.952C45.767 16.132 45.245 16.654 45.029 16.798C44.903 17.122 44.615 17.374 44.417 17.644C44.219 17.932 43.949 18.526 43.949 18.724C43.949 18.796 43.967 18.868 43.967 18.94C43.967 19.102 43.913 19.3 43.913 19.39C43.913 19.624 44.021 19.696 44.093 20.164C44.273 20.2 44.273 20.632 44.633 20.722C44.615 20.704 45.299 21.154 45.785 21.154C45.803 21.154 45.803 21.154 45.839 21.154C45.965 21.154 46.073 21.19 46.127 21.19C46.523 21.136 46.991 20.974 47.243 20.902C47.405 20.866 47.585 20.884 47.693 20.812C47.711 20.812 47.729 20.704 47.783 20.704C47.801 20.704 47.837 20.704 47.873 20.704C48.053 20.704 48.323 20.434 48.503 20.434C48.521 20.434 48.539 20.506 48.593 20.506C48.683 20.506 49.043 20.11 49.133 20.074C49.223 20.038 49.403 20.056 49.475 20.002C49.493 19.984 49.493 19.876 49.529 19.876C49.583 19.876 49.619 19.894 49.655 19.894C49.817 19.894 50.213 19.534 50.177 19.552C50.627 19.318 51.023 18.85 51.473 18.742C51.923 18.22 52.085 18.364 52.571 17.914C52.913 17.626 53.363 17.302 53.363 17.032C53.363 17.014 53.363 16.96 53.327 16.924ZM46.037 16.762C46.505 16.294 47.063 15.826 47.621 15.826C47.765 15.826 47.963 15.898 47.999 16.078C47.855 16.276 47.459 16.546 47.477 16.564C47.441 16.582 47.477 16.654 47.423 16.69C47.405 16.726 47.225 16.744 47.153 16.798C46.901 17.014 46.559 17.428 46.217 17.428C46.181 17.428 46.181 17.41 46.163 17.41C46.163 17.41 45.983 17.518 45.965 17.572L45.533 17.752C45.551 17.734 45.551 17.716 45.551 17.698C45.551 17.68 45.551 17.68 45.551 17.662C45.407 17.788 45.209 17.824 45.029 17.95C45.353 17.518 45.713 17.086 46.037 16.762ZM61.6461 16.96L61.2501 17.392H61.0701C61.0341 17.428 60.9621 17.554 60.9261 17.59C60.8361 17.68 60.7101 17.698 60.6381 17.77C60.5301 17.86 60.4761 17.986 60.4041 18.058C60.3141 18.13 60.2061 18.166 60.0981 18.256C59.7561 18.688 59.3421 18.652 58.7841 18.976C58.6941 19.354 58.1361 19.444 58.2621 19.444C58.2081 19.444 58.1541 19.408 58.1181 19.408C58.0641 19.408 58.0461 19.408 57.9921 19.444C57.4521 19.822 57.0561 20.056 56.3001 20.326C56.1021 20.452 56.0661 20.56 55.7601 20.56C55.2381 20.56 54.6981 20.974 54.1041 20.974C53.9061 20.974 53.7081 21.01 53.5101 21.01C53.2761 21.01 53.2761 20.884 53.1681 20.884C52.5741 20.686 52.4301 20.398 52.4301 19.894C52.4301 18.616 53.4381 17.518 53.8701 17.032C54.1761 16.708 54.5721 16.348 55.0941 16.348C55.3821 16.348 55.4541 16.87 55.4721 17.104C55.4721 17.194 55.4001 17.248 55.3821 17.41C55.4001 17.41 55.4541 17.464 55.4541 17.5C55.4541 17.644 55.4181 17.788 55.4181 17.914C55.4181 18.058 55.4541 18.184 55.6341 18.292C55.8141 18.184 55.9761 18.256 56.0661 18.184C56.2101 18.094 56.2641 17.878 56.2641 17.608C56.2641 17.104 56.0661 16.438 55.9581 16.294C55.8321 16.186 55.4721 16.096 55.3641 16.024C55.2921 15.934 55.0041 15.808 55.0401 15.808C55.0401 15.808 55.0221 15.826 55.0041 15.844C55.0041 15.844 54.6081 15.808 54.4281 15.808C53.9241 15.808 53.5461 16.582 53.0601 16.816C52.8441 17.194 52.6461 17.572 52.2501 17.806C52.2501 17.824 52.2681 17.86 52.2681 17.896C52.2681 18.184 52.0341 18.238 52.0341 18.472C52.0341 18.544 52.0341 18.598 52.0341 18.634C51.7821 18.886 51.7281 19.318 51.7281 19.588C51.7281 19.876 51.7641 20.506 52.1241 20.848C52.1601 20.884 52.1241 20.974 52.1961 21.028C52.5741 21.406 53.2761 21.514 53.7621 21.514C54.5721 21.514 55.2201 21.136 55.0941 21.244C56.2641 20.974 56.9121 20.596 57.7581 20.056C58.1181 19.822 58.2261 19.84 58.5321 19.678C58.7841 19.372 59.0721 19.39 59.3961 19.102C60.0621 18.742 61.3941 17.878 62.0061 17.068L61.8441 16.834L61.6461 16.96ZM75.9487 16.744C75.4987 17.356 75.5707 17.176 75.4987 17.248C75.4087 17.374 75.3547 17.392 75.2287 17.482C75.2107 17.482 74.8147 18.094 74.7787 18.112C74.7427 18.13 74.4727 18.184 74.4727 18.184C74.4547 18.184 74.4547 18.292 74.4187 18.31C73.7887 18.976 73.3387 19.3 72.9247 19.696C72.7987 19.804 72.5287 19.912 72.3847 20.02C72.2587 20.164 72.1687 20.47 72.0247 20.596C71.8447 20.722 71.3047 20.992 71.1067 21.082C70.9087 21.172 70.6027 21.622 70.4047 21.712C70.2967 21.784 70.1527 21.73 70.0447 21.784C69.3067 22.144 68.7847 22.684 67.9567 22.684C67.7227 22.684 67.4707 22.63 67.1827 22.522C66.8587 22.126 66.7687 21.676 66.7687 21.19C66.7687 20.614 67.0927 19.912 67.2367 19.552C67.3267 19.318 67.4347 18.634 67.4887 18.418C67.5067 18.328 67.5427 18.382 67.5427 18.346C67.5427 18.328 67.5427 18.31 67.5427 18.274C67.5427 18.238 67.6147 18.256 67.6147 18.238C67.6327 18.166 67.6507 18.094 67.6507 18.04C67.6507 17.554 67.5247 17.5 67.2187 17.356C67.1827 17.338 67.1827 17.23 67.1467 17.212C67.0567 17.194 66.6607 17.122 66.5707 17.122C66.0307 17.122 65.0767 17.842 65.0587 17.842C64.5727 18.13 63.6907 18.778 63.6727 19.012C63.6547 18.994 63.6187 18.994 63.6007 18.994C63.3847 18.994 62.8627 19.714 62.4487 19.894C62.4487 19.858 62.4487 19.84 62.4487 19.804C62.4487 19.264 62.8447 18.418 62.9167 18.058C62.9707 17.752 63.5107 16.114 63.5647 15.97C63.8347 15.484 64.0147 15.574 64.3927 15.16C65.1487 14.404 66.1027 13.648 66.2107 13.468C66.3007 13.36 66.3727 13.234 66.4447 13.144C66.5887 12.964 66.8947 12.694 66.9847 12.514C67.0567 12.424 67.2547 12.352 67.3267 12.244C67.5427 11.866 67.7947 11.632 67.9747 11.416C68.0107 11.344 67.9927 11.272 68.0647 11.2C68.1187 11.11 68.2627 11.074 68.3347 10.984C68.3887 10.858 68.4247 10.696 68.4787 10.552C68.9827 9.778 69.1447 9.634 69.3427 9.22C69.4147 9.076 69.4147 8.914 69.4867 8.788C69.5047 8.734 69.5947 8.698 69.6307 8.644C69.7207 8.5 69.8467 8.284 69.9367 8.14C69.9907 7.996 69.9547 7.816 70.0087 7.672C70.0447 7.564 70.2067 7.582 70.2067 7.366C70.2067 7.294 70.2067 7.222 70.2067 7.186C70.2067 6.754 70.4407 6.538 70.4407 6.286C70.4047 4.864 70.2067 5.062 70.0447 4.684C69.9367 4.45 69.5947 4.378 69.2347 4.378C68.9647 4.378 68.6047 4.702 68.5867 4.738C68.4427 4.864 68.4067 4.882 68.4067 4.972C68.4067 5.008 68.4247 5.044 68.4247 5.062C68.4247 5.224 67.9927 5.512 67.8847 5.692C67.7947 5.854 67.7047 5.944 67.6327 6.034C67.3807 6.412 67.2907 6.862 66.9307 7.114C66.8947 7.564 66.4267 8.086 66.2647 8.464C66.1387 8.86 65.9047 9.22 65.7607 9.364C65.5267 9.814 65.5267 10.246 65.2207 10.39C65.2207 10.408 65.2027 10.426 65.2027 10.444C65.2027 10.498 65.2387 10.552 65.2387 10.606C65.2387 10.714 65.0587 10.786 65.0227 10.876C64.8787 11.074 64.8247 11.326 64.7347 11.506C64.6807 11.596 64.5367 11.686 64.4827 11.776C64.4647 11.884 64.4647 12.028 64.4287 12.172C64.2847 12.586 63.8347 12.892 63.8347 13.234C63.7267 13.558 63.7627 13.63 63.6547 13.864C63.6547 13.882 63.5107 13.864 63.5107 13.918C63.5107 13.972 63.6547 13.936 63.6547 14.008C63.6547 14.206 63.4387 14.242 63.4387 14.53C63.4387 14.602 63.4567 14.674 63.4567 14.674C63.4567 14.674 63.3307 14.692 63.3127 14.71C63.1147 15.232 63.0427 14.854 62.8807 15.376C62.6107 15.718 62.8987 15.736 62.4487 16.096C61.9987 16.384 61.8367 16.924 61.5307 17.05L60.9547 17.446L61.0087 17.734C61.2247 17.644 61.4947 17.608 61.6207 17.536C61.8367 17.392 61.9267 17.176 62.0347 17.176C62.0347 17.176 61.9627 17.194 61.9447 17.194C61.9447 17.14 62.0347 17.158 62.2507 17.068C62.3947 16.942 62.3047 16.87 62.4847 16.744C62.4847 16.744 62.4847 16.762 62.4847 16.798C62.4847 17.212 61.7467 18.67 61.6747 18.958C61.6567 19.12 61.5847 19.732 61.5667 19.894C61.5307 20.128 61.4047 20.344 61.4047 20.524C61.4047 20.902 61.8727 21.082 62.1967 21.082C62.7907 21.082 62.7367 20.668 63.1687 20.254C63.6007 19.84 64.0147 19.444 64.3567 19.174C64.4467 19.084 64.5007 18.958 64.5547 18.904C64.6267 18.868 64.8247 18.85 64.9147 18.814C65.0047 18.742 65.0407 18.598 65.0947 18.544C65.2927 18.436 65.5627 18.202 65.7247 18.094C65.8687 18.058 66.1747 17.824 66.4447 17.824C66.5527 17.824 66.7327 17.878 66.7327 18.022C66.7327 18.292 66.3547 18.814 66.3547 18.994C66.3547 19.03 66.3907 19.048 66.3907 19.084C66.3907 19.3 66.1747 19.498 66.1027 19.696C66.0487 19.876 66.0487 20.182 65.9947 20.434C65.9047 20.704 65.8147 20.866 65.8147 21.082C65.8147 21.172 65.9767 21.244 65.9767 21.568C65.9767 21.892 66.7687 22.756 67.2547 23.008C67.5247 23.026 67.8847 23.044 68.1547 23.044C68.8387 23.044 69.8827 22.36 70.7647 21.964C71.0347 21.838 71.9347 21.118 72.2047 20.956C73.1587 20.092 74.2027 19.318 74.8867 18.418C75.2827 18.004 75.8047 17.59 76.0207 17.14L75.9487 16.744ZM64.3207 14.026C64.7707 13.072 64.6447 13.234 65.4547 11.614C65.4907 11.416 65.8147 11.02 66.0307 10.588C66.1567 10.354 66.1207 10.012 66.3907 9.886C66.3907 9.868 66.3907 9.85 66.3907 9.832C66.3907 9.652 66.5707 9.472 66.6967 9.292C67.1827 8.14 67.9027 7.078 68.6407 5.944C68.8927 5.53 68.8747 5.746 68.9827 5.62C69.0367 5.584 69.0187 5.476 69.0547 5.44C69.2167 5.296 69.4507 5.134 69.6307 5.134C69.8827 5.134 70.0987 5.386 70.0987 5.926C70.0987 7.24 69.2167 8.662 68.0647 10.426C68.0107 10.552 68.0467 10.606 67.9747 10.75C67.7947 10.93 67.8127 10.894 67.6687 11.2C67.5787 11.308 67.4347 11.326 67.3627 11.452C67.0927 11.866 66.8587 12.244 66.5707 12.604C66.5347 12.676 66.3547 12.694 66.3007 12.766C66.1387 13.018 66.3187 12.964 66.0847 13.234C65.9227 13.45 65.7067 13.558 65.5447 13.756C65.4187 13.918 65.1847 13.918 65.0767 14.08C65.0047 14.152 64.8427 14.278 64.7347 14.386C64.5727 14.584 64.1047 15.106 63.8167 15.106C63.9607 14.782 64.2307 14.278 64.3207 14.026ZM79.8395 21.118C80.1815 21.478 80.3075 21.766 80.5955 21.766C80.7215 21.766 80.8475 21.712 81.0275 21.712C81.2975 21.712 81.4595 21.784 81.5135 21.784C81.6395 21.784 81.6575 21.712 82.0175 21.604C82.1975 21.532 82.1975 21.334 82.4675 21.334C82.5395 21.334 82.6115 21.352 82.6835 21.352C82.8275 21.352 82.7915 21.262 82.8455 21.208C82.9175 21.154 83.0435 21.154 83.0975 21.136C83.1875 21.082 83.2955 20.974 83.3855 20.92C84.2675 20.632 83.8175 20.47 84.1235 20.47C84.1775 20.47 84.2495 20.47 84.2855 20.47C84.3575 20.47 84.7175 20.236 84.7715 20.2C85.0775 20.002 84.9515 20.002 85.2575 19.804C86.3015 19.084 86.3375 18.814 87.3635 18.292C87.4535 18.004 88.0835 17.896 88.2815 17.698C88.3355 17.662 88.3355 17.518 88.3895 17.464C88.5155 17.302 88.7315 17.266 88.7315 16.978C88.7315 16.924 88.7135 16.708 88.6595 16.708C88.5875 16.708 88.1555 17.14 87.9395 17.32C87.5975 17.608 87.3995 17.68 87.0395 17.968C86.9495 18.022 86.7875 18.04 86.6975 18.094C86.2655 18.454 86.0855 18.616 85.8155 18.796C85.7075 18.868 85.6895 19.066 85.5995 19.138C85.4195 19.264 85.1495 19.282 84.9695 19.408C84.2495 19.912 84.0335 20.164 83.2595 20.524C82.6475 20.794 81.9635 21.352 81.2975 21.352C80.9015 21.352 80.4515 21.154 80.3615 20.668C80.3615 20.524 80.4155 20.344 80.4155 20.182C80.4155 20.074 80.3975 19.948 80.3255 19.84C80.5235 19.624 80.5955 19.174 80.7215 18.796C80.8475 18.382 80.9555 17.968 80.9735 17.644C81.2255 17.338 81.1175 17.194 81.2075 16.654C81.2075 16.168 80.9015 15.844 80.4335 15.844C79.7675 15.844 79.0475 16.528 78.5975 16.87C78.1835 17.23 78.3455 16.798 77.3915 17.752C77.2835 17.824 77.1935 17.824 77.0855 17.914C76.8155 18.166 76.5275 18.436 76.2215 18.634C76.3295 17.824 76.6715 17.266 76.8695 16.528C76.7975 16.24 76.4555 16.204 76.1675 16.096L75.1235 19.894C75.2135 20.02 75.3035 20.146 75.4655 20.254C75.8975 20.218 76.9775 18.976 77.1035 18.85C77.1395 18.814 77.2115 18.778 77.2475 18.724C78.0935 17.95 78.9215 17.464 79.5515 16.924C79.7855 16.798 79.9475 16.6 80.2895 16.582C80.3075 16.654 80.3075 16.762 80.3075 16.852C80.3075 16.942 80.3075 17.014 80.2895 17.05L80.3075 17.068C80.3075 17.068 80.3075 17.05 80.3255 17.05C80.2535 17.338 80.0915 17.68 80.0915 17.878C80.0915 17.95 80.1455 17.986 80.1455 18.022C80.1455 18.202 80.0015 18.13 80.0015 18.328C80.0015 18.418 80.0195 18.49 80.0195 18.562C80.0195 18.724 79.8215 18.886 79.8215 19.048C79.8215 19.138 79.8575 19.264 79.8575 19.354C79.8575 19.606 79.6595 19.804 79.6595 20.002C79.6595 20.344 79.7675 21.01 79.8395 21.118ZM91.3986 14.782C91.3986 14.494 90.6966 14.17 90.4086 14.17C90.3186 14.17 90.2466 14.188 90.1746 14.242C90.1746 14.854 90.6966 14.944 91.1286 15.124C91.1826 14.962 91.3986 15.034 91.3986 14.782ZM94.5846 17.464C94.5666 17.464 94.5666 17.464 94.5666 17.464C94.5666 17.41 94.8726 17.23 94.8726 17.194C94.8726 17.194 94.8726 17.194 94.8546 17.194H94.8366C94.8366 17.176 94.8546 17.05 94.8546 16.96C94.8546 16.906 94.8546 16.852 94.8186 16.852C94.7106 16.978 94.6566 16.888 94.5486 16.96C94.0446 17.356 93.6306 17.59 93.2706 17.914C92.6046 18.49 91.7586 18.994 91.1646 19.552C90.6786 20.02 89.9586 20.38 89.4546 20.704C89.4366 20.704 89.4366 20.704 89.4186 20.704C89.4186 20.704 89.3826 20.704 89.3466 20.704C89.2746 20.704 89.3286 20.794 89.2566 20.83C88.9866 20.992 88.7526 21.064 88.5186 21.064C88.2486 21.064 87.9966 21.154 87.9966 20.65C87.9966 20.236 88.1046 19.804 88.2306 19.426C88.2846 19.282 88.4466 19.174 88.5006 19.03C88.5726 18.868 88.6266 18.58 88.6266 18.454C88.6266 18.4 88.6086 18.364 88.6086 18.328C88.6086 18.238 88.7886 18.184 88.8246 18.094C88.9686 17.716 89.1486 17.392 89.2386 17.05C89.0586 16.906 88.9866 16.654 88.6806 16.654C88.3566 16.654 88.0146 18.004 87.8886 18.238C87.8706 18.274 87.7626 18.256 87.7626 18.364C87.7626 18.4 87.7806 18.436 87.7806 18.472C87.7806 18.526 87.6186 18.814 87.5646 18.976C87.3666 19.444 87.1506 20.038 87.1506 20.56C87.1506 21.244 87.6006 21.802 88.5006 21.802C88.9686 21.802 89.3286 21.46 89.6886 21.28C90.4266 20.794 91.0026 20.362 91.5246 19.966C92.3886 19.282 93.0186 18.904 93.5406 18.238C93.7566 18.202 93.8826 18.076 94.0086 17.932C94.1526 17.734 94.3506 17.824 94.5846 17.464ZM103.148 16.96L102.752 17.392H102.572C102.536 17.428 102.464 17.554 102.428 17.59C102.338 17.68 102.212 17.698 102.14 17.77C102.032 17.86 101.978 17.986 101.906 18.058C101.816 18.13 101.708 18.166 101.6 18.256C101.258 18.688 100.844 18.652 100.286 18.976C100.196 19.354 99.6381 19.444 99.7641 19.444C99.7101 19.444 99.6561 19.408 99.6201 19.408C99.5661 19.408 99.5481 19.408 99.4941 19.444C98.9541 19.822 98.5581 20.056 97.8021 20.326C97.6041 20.452 97.5681 20.56 97.2621 20.56C96.7401 20.56 96.2001 20.974 95.6061 20.974C95.4081 20.974 95.2101 21.01 95.0121 21.01C94.7781 21.01 94.7781 20.884 94.6701 20.884C94.0761 20.686 93.9321 20.398 93.9321 19.894C93.9321 18.616 94.9401 17.518 95.3721 17.032C95.6781 16.708 96.0741 16.348 96.5961 16.348C96.8841 16.348 96.9561 16.87 96.9741 17.104C96.9741 17.194 96.9021 17.248 96.8841 17.41C96.9021 17.41 96.9561 17.464 96.9561 17.5C96.9561 17.644 96.9201 17.788 96.9201 17.914C96.9201 18.058 96.9561 18.184 97.1361 18.292C97.3161 18.184 97.4781 18.256 97.5681 18.184C97.7121 18.094 97.7661 17.878 97.7661 17.608C97.7661 17.104 97.5681 16.438 97.4601 16.294C97.3341 16.186 96.9741 16.096 96.8661 16.024C96.7941 15.934 96.5061 15.808 96.5421 15.808C96.5421 15.808 96.5241 15.826 96.5061 15.844C96.5061 15.844 96.1101 15.808 95.9301 15.808C95.4261 15.808 95.0481 16.582 94.5621 16.816C94.3461 17.194 94.1481 17.572 93.7521 17.806C93.7521 17.824 93.7701 17.86 93.7701 17.896C93.7701 18.184 93.5361 18.238 93.5361 18.472C93.5361 18.544 93.5361 18.598 93.5361 18.634C93.2841 18.886 93.2301 19.318 93.2301 19.588C93.2301 19.876 93.2661 20.506 93.6261 20.848C93.6621 20.884 93.6261 20.974 93.6981 21.028C94.0761 21.406 94.7781 21.514 95.2641 21.514C96.0741 21.514 96.7221 21.136 96.5961 21.244C97.7661 20.974 98.4141 20.596 99.2601 20.056C99.6201 19.822 99.7281 19.84 100.034 19.678C100.286 19.372 100.574 19.39 100.898 19.102C101.564 18.742 102.896 17.878 103.508 17.068L103.346 16.834L103.148 16.96ZM107.461 16.924C107.425 16.294 107.119 16.006 106.849 15.754C106.759 15.682 106.651 15.736 106.561 15.664C106.453 15.61 106.417 15.484 106.363 15.484C106.147 15.412 105.877 15.394 105.751 15.394C104.167 15.394 102.997 17.212 102.223 18.094C102.205 18.13 102.187 18.166 102.187 18.184C102.187 18.31 102.277 18.436 102.277 18.508C102.277 18.544 102.277 18.544 102.223 18.562C102.187 18.49 102.133 18.436 102.043 18.436C102.025 18.436 102.025 18.436 102.007 18.436C102.079 18.598 102.115 18.598 102.115 18.67C102.115 18.67 102.115 18.832 102.043 18.832C102.007 18.832 101.953 18.832 101.917 18.832C101.845 18.832 101.809 18.85 101.809 18.904C101.809 18.922 101.809 18.958 101.827 18.994C101.827 19.102 102.025 18.994 102.025 19.102C102.025 19.12 102.025 19.156 102.007 19.174C101.917 19.174 101.863 19.156 101.827 19.156C101.701 19.156 101.647 19.21 101.467 19.264C101.485 19.318 101.503 19.372 101.503 19.444C101.503 19.768 101.251 20.074 101.251 20.56C101.251 21.136 101.935 21.478 102.403 21.478C102.835 21.478 103.033 21.28 103.321 21.1C103.465 21.028 103.573 21.01 103.681 20.974C103.699 20.974 103.717 20.884 103.753 20.866C104.653 20.254 105.103 20.02 105.517 19.48C105.733 19.48 105.949 19.228 106.075 19.12C106.579 18.634 107.047 18.364 107.461 17.878C107.767 17.752 107.947 17.464 108.217 17.32C108.055 17.59 108.019 17.932 107.947 18.22C107.839 18.616 107.659 18.994 107.659 19.426C107.659 19.768 107.839 19.822 107.839 20.074C107.839 20.434 108.613 21.19 109.279 21.19C109.657 21.19 109.801 20.884 110.035 20.704C110.035 20.794 110.071 20.794 110.143 20.794C110.197 20.794 110.287 20.794 110.359 20.794C110.377 20.794 110.377 20.794 110.395 20.794C110.467 20.686 110.557 20.632 110.755 20.632C110.935 20.326 111.277 20.218 111.547 20.038C111.601 19.984 111.619 19.93 111.691 19.894C111.943 19.714 112.303 19.714 112.537 19.516C112.789 19.282 113.095 19.12 113.131 18.868C113.653 18.868 113.347 18.652 113.761 18.544C113.761 18.418 113.977 18.148 113.977 18.022C114.283 18.022 114.769 17.896 114.769 17.608C115.075 17.608 115.291 17.302 115.291 17.104C115.291 17.014 115.237 16.906 115.183 16.816C115.147 16.852 114.517 17.23 114.517 17.356C114.517 17.356 114.517 17.338 114.535 17.338V17.356C114.535 17.356 114.517 17.374 114.499 17.374C114.463 17.374 114.427 17.374 114.409 17.374C114.373 17.374 114.319 17.464 114.319 17.518C114.193 17.644 114.067 17.716 113.905 17.788C113.779 17.842 113.653 18.022 113.581 18.094C113.329 18.346 113.149 18.31 112.861 18.544C112.303 18.994 111.655 19.408 110.989 19.642C110.989 19.93 110.683 20.02 110.539 20.02C110.521 20.02 110.503 20.02 110.485 20.02C110.467 20.29 109.657 20.596 109.189 20.596C108.757 20.596 108.433 20.434 108.433 19.876C108.433 18.544 109.009 17.734 109.243 16.636C109.045 16.51 108.973 16.294 108.703 16.294C108.595 16.294 108.487 16.384 108.379 16.384C108.307 16.384 108.253 16.366 108.217 16.294C107.965 16.492 107.857 16.852 107.461 16.924ZM102.961 20.632C102.943 20.632 102.907 20.632 102.907 20.632C102.619 20.632 102.457 20.812 102.133 20.812C102.061 20.812 101.881 20.812 101.881 20.668C101.881 20.56 101.917 20.434 101.917 20.398V20.38C101.917 20.38 101.917 20.398 101.881 20.434C101.863 20.416 101.863 20.38 101.863 20.362C101.863 20.038 102.493 19.624 102.493 18.904C103.105 18.58 103.177 17.68 103.825 17.392C103.825 17.392 103.825 17.392 103.843 17.392C103.879 17.392 103.897 17.41 103.933 17.41C103.987 17.41 103.987 17.248 104.023 17.194C104.329 16.96 104.707 16.51 105.247 16.384C105.247 16.384 105.265 16.366 105.265 16.348C105.265 16.294 105.247 16.276 105.247 16.258C105.247 16.204 105.517 16.276 105.517 16.114C105.517 16.114 105.517 16.114 105.517 16.096C105.535 16.114 105.589 16.114 105.643 16.114C105.787 16.114 105.967 16.078 106.165 16.078C106.399 16.078 106.741 16.276 106.741 16.78C106.741 18.004 106.201 17.968 104.851 19.174C104.833 19.192 104.797 19.318 104.779 19.336C104.707 19.39 104.563 19.354 104.491 19.408C104.347 19.516 104.257 19.642 104.149 19.732C103.717 20.074 103.303 20.164 102.961 20.632ZM122.672 6.07C122.492 6.016 122.492 5.818 122.366 5.71C122.15 5.53 121.736 5.53 121.358 5.494C121.268 5.656 121.142 5.746 120.908 5.782C120.8 5.854 120.836 6.16 120.656 6.214C120.53 6.304 120.296 6.358 120.152 6.448C120.152 6.826 119.774 6.844 119.774 7.222C119.756 7.222 119.72 7.222 119.72 7.222C119.522 7.222 119.54 7.474 119.486 7.582C119.468 7.618 119.36 7.618 119.36 7.654C119.27 7.834 119.252 8.014 119.216 8.14C119.198 8.176 119.09 8.266 119.072 8.302C118.766 8.896 118.46 9.85 118.334 10.03C118.262 10.174 118.19 10.264 118.118 10.39C117.992 10.66 117.992 11.038 117.686 11.164C117.686 11.2 117.686 11.236 117.686 11.254C117.686 11.722 117.326 12.064 117.182 12.424C117.02 12.766 117.092 13.234 116.75 13.63C116.75 13.684 116.75 13.72 116.75 13.756C116.75 13.918 116.804 13.99 116.84 14.116C116.66 14.26 116.642 14.314 116.642 14.332C116.642 14.368 116.66 14.386 116.66 14.476C116.66 15.16 116.21 15.052 116.21 15.214C116.21 15.34 116.282 15.466 116.282 15.556C116.282 15.754 115.904 15.862 115.85 16.006C115.346 16.762 114.896 16.87 114.698 17.194C114.644 17.284 114.482 17.212 114.482 17.338C114.482 17.356 114.482 17.374 114.5 17.41C114.248 17.41 114.302 17.554 114.14 17.554C114.158 17.644 114.23 17.68 114.302 17.68C114.392 17.68 114.5 17.644 114.608 17.644C114.644 17.644 114.68 17.644 114.698 17.644C115.04 17.266 114.824 17.554 115.184 17.284C115.58 17.104 115.58 16.96 115.904 16.726C115.904 17.158 115.4 18.94 115.4 19.372C115.4 20.164 115.436 21.1 115.742 21.55C115.868 21.676 115.904 21.784 115.958 21.928C116.12 22.144 116.3 22.378 116.39 22.486C116.444 22.522 116.408 22.666 116.48 22.702C116.498 22.756 116.642 22.756 116.678 22.774C116.75 22.828 116.768 22.99 116.858 22.99C116.894 22.99 116.93 22.99 116.948 22.99C116.966 22.99 116.984 22.99 116.984 23.008C116.984 23.044 116.966 23.08 116.966 23.116C116.966 23.134 117.002 23.134 117.02 23.134C117.038 23.134 117.074 23.134 117.11 23.134C117.164 23.134 117.11 23.296 117.2 23.296C117.236 23.296 117.272 23.278 117.29 23.278C117.38 23.278 117.362 23.404 117.416 23.422C117.56 23.512 117.848 23.512 118.064 23.566C118.352 23.638 118.586 23.782 118.658 23.764C118.748 23.764 118.802 23.692 118.91 23.692C119.108 23.692 119.198 23.746 119.288 23.746C119.414 23.746 120.134 23.584 120.188 23.134C120.17 23.134 120.134 23.134 120.098 23.134C119.9 23.134 119.792 23.224 119.63 23.224C119.594 23.224 119.576 23.188 119.576 23.152C119.576 23.134 119.576 23.134 119.576 23.116C119.576 23.062 119.558 23.044 119.486 23.044C119.036 23.044 118.73 23.134 118.388 23.134C117.668 23.134 117.056 22.324 116.84 22.054C116.462 21.424 116.264 20.434 116.264 19.444C116.264 18.256 116.588 16.924 117.092 16.258C117.11 16.222 117.2 16.204 117.218 16.204C117.272 16.114 117.254 15.988 117.29 15.916C117.47 15.664 117.758 15.538 117.956 15.322C117.992 15.25 117.956 15.124 118.01 15.052C118.1 14.944 118.298 15.016 118.298 14.872C118.298 14.584 118.55 14.692 118.694 14.494C118.802 14.386 118.73 14.08 119 14.08C119.036 14.008 119 13.918 119.072 13.846C119.36 13.45 119.558 13.288 119.774 12.91C120.548 11.542 121.214 10.588 121.718 9.238C121.79 9.076 121.952 8.896 122.024 8.752C122.078 8.554 122.096 8.338 122.168 8.14C122.294 7.834 122.42 7.636 122.51 7.294C122.582 6.88 122.654 6.502 122.672 6.07ZM120.854 6.934C121.106 6.646 121.43 6.322 121.952 6.286C122.006 6.358 122.024 6.43 122.024 6.52C122.024 7.096 121.556 8.374 121.286 8.59C121.286 8.644 121.304 8.662 121.304 8.698C121.304 8.824 121.214 8.896 121.214 9.04C121.214 9.076 121.214 9.094 121.214 9.094C120.746 9.562 120.71 10.3 120.35 10.678C120.206 10.84 119.99 11.254 119.918 11.614C119.612 11.866 119.36 12.208 119.27 12.694C118.874 12.82 118.874 13.324 118.496 13.486C118.388 13.864 118.316 13.936 118.082 14.188C118.082 14.224 118.1 14.224 118.1 14.26C118.1 14.404 117.83 14.314 117.794 14.404C117.686 14.494 117.758 14.746 117.578 14.764C117.56 14.818 117.452 14.962 117.38 14.962C117.38 14.962 117.362 14.944 117.362 14.908C117.722 13.612 118.19 12.208 118.838 10.75C119.09 10.174 119.486 9.346 119.918 8.5C119.936 8.482 120.152 8.014 120.152 8.14C120.152 8.122 120.134 8.104 120.134 8.05C120.134 7.96 120.26 8.014 120.26 7.942C120.422 7.654 120.656 7.204 120.854 6.934Z" fill="#F16727"/>
<path fill-rule="evenodd" clip-rule="evenodd" d="M11.1989 3.0676C7.49776 3.45391 4.13562 5.49848 2.06322 8.62329C-0.337079 12.2426 -0.666991 16.9176 1.19922 20.8678C2.20062 22.9874 3.90159 24.891 5.90243 26.1311C9.58761 28.4152 14.2317 28.6193 18.1269 26.6683C21.3658 25.0462 23.7328 22.0929 24.6268 18.5587C25.1527 16.4797 25.1217 14.163 24.5406 12.1079C22.8896 6.26919 17.235 2.43763 11.1989 3.0676ZM17.024 8.37426C19.3205 8.58923 20.7935 9.60378 21.2258 11.2682C21.3528 11.7569 21.3495 12.6848 21.2192 13.1356C20.9841 13.9488 20.4227 14.6843 19.6454 15.1973L19.2866 15.4341L19.5876 15.6339C20.3641 16.1495 20.8952 16.7755 21.1336 17.456C21.3673 18.123 21.3877 19.1566 21.1798 19.7998C20.7837 21.0258 19.7511 21.8879 18.1558 22.3246L17.5782 22.4827L11.1238 22.4998L4.66936 22.5168V15.4145V8.3122L10.5173 8.31237C14.2139 8.31255 16.6077 8.33529 17.024 8.37426ZM6.22882 12.2376V14.7243L11.7014 14.7064C17.1565 14.6886 17.1754 14.6881 17.636 14.5599C18.9409 14.1968 19.572 13.5858 19.7126 12.5497C19.7608 12.1942 19.6651 11.6222 19.4969 11.2609C19.3299 10.9021 18.8056 10.3952 18.3988 10.1992C18.2148 10.1106 17.8639 9.98149 17.6191 9.91239C17.1783 9.78799 17.1196 9.78654 11.7014 9.76882L6.22882 9.75092V12.2376ZM6.22882 18.6461V21.133L11.6725 21.114C17.0932 21.0951 17.1181 21.0945 17.5782 20.9666C18.551 20.6963 19.1525 20.2795 19.4538 19.6669C19.697 19.1723 19.7743 18.6927 19.6893 18.205C19.522 17.2447 18.9057 16.6675 17.6762 16.3196C17.2357 16.195 17.1814 16.1936 11.7302 16.1765L6.22882 16.1592V18.6461Z" fill="#F16727"/>
<path fill-rule="evenodd" clip-rule="evenodd" d="M17.024 8.37425C19.3205 8.58923 20.7935 9.60377 21.2258 11.2682C21.3528 11.7569 21.3495 12.6848 21.2192 13.1356C20.9841 13.9488 20.4227 14.6843 19.6454 15.1973L19.2866 15.4341L19.5876 15.6339C20.3641 16.1495 20.8952 16.7755 21.1336 17.4559C21.3673 18.123 21.3877 19.1566 21.1798 19.7998C20.7837 21.0258 19.7511 21.8879 18.1558 22.3246L17.5782 22.4827L11.1238 22.4998L4.66937 22.5168V15.4145V8.31219L10.5173 8.31237C14.2139 8.31254 16.6077 8.33529 17.024 8.37425ZM6.22883 12.2376V14.7243L11.7014 14.7064C17.1565 14.6886 17.1754 14.6881 17.636 14.5599C18.9409 14.1968 19.572 13.5858 19.7126 12.5497C19.7608 12.1941 19.6651 11.6222 19.4969 11.2609C19.3299 10.9021 18.8056 10.3952 18.3988 10.1992C18.2148 10.1106 17.8639 9.98148 17.6191 9.91238C17.1783 9.78798 17.1196 9.78654 11.7014 9.76882L6.22883 9.75092V12.2376ZM6.22883 18.6461V21.133L11.6725 21.114C17.0932 21.0951 17.1181 21.0945 17.5782 20.9666C18.551 20.6963 19.1525 20.2795 19.4538 19.6669C19.697 19.1723 19.7743 18.6927 19.6893 18.205C19.522 17.2447 18.9057 16.6675 17.6762 16.3196C17.2357 16.195 17.1814 16.1936 11.7303 16.1765L6.22883 16.1592V18.6461Z" fill="white"/>
</svg>
