<svg width="24" height="24" viewBox="0 0 24 24" fill="none" xmlns="http://www.w3.org/2000/svg">
<path d="M16.3876 0.80629C14.5539 0.0935793 12.5727 -0.15215 10.6211 0.0910944C8.66961 0.334339 6.80865 1.05897 5.20483 2.20013C3.62483 3.32434 2.34296 4.81825 1.47015 6.55161L1.4692 6.5535C1.45637 6.579 1.44361 6.60457 1.43096 6.63017C1.42318 6.64591 1.42406 6.66455 1.4333 6.67947C1.44253 6.6944 1.4588 6.70347 1.47631 6.70347H1.59126C1.59786 6.70347 1.60426 6.70218 1.61018 6.69979H12.7464C14.0443 6.69979 15.0646 7.37275 15.8043 8.23171C16.5449 9.09185 16.9957 10.1297 17.1526 10.8332C17.1617 10.874 17.1949 10.9051 17.2362 10.9114C17.2775 10.9177 17.3184 10.8979 17.3392 10.8615L21.0847 4.31429L21.0848 4.31415C21.085 4.31384 21.0855 4.31301 21.0866 4.31149C21.0883 4.30918 21.0904 4.3063 21.093 4.30272L21.0951 4.29997C21.0999 4.29353 21.1058 4.2856 21.1113 4.2777C21.1175 4.26885 21.1246 4.25826 21.1299 4.24811C21.1326 4.24312 21.1357 4.23651 21.1378 4.22915C21.1395 4.2236 21.1435 4.20836 21.1374 4.19119C21.1354 4.18529 21.1322 4.17982 21.1282 4.17507C19.85 2.67646 18.2212 1.519 16.3876 0.80629Z" fill="white"/>
<path d="M0.151852 13.9721C0.465077 15.9189 1.25476 17.7574 2.45024 19.3232C3.64572 20.889 5.20969 22.1331 7.00218 22.9442C8.76805 23.7433 10.7014 24.0976 12.6341 23.9769L12.6363 23.9768C12.6499 23.976 12.6636 23.9751 12.6773 23.9742L12.6911 23.9733C12.7013 23.9726 12.7114 23.9719 12.7216 23.9712C12.739 23.9699 12.7546 23.9598 12.7628 23.9442C12.771 23.9287 12.7706 23.91 12.7617 23.8949L12.7036 23.7954C12.7003 23.7897 12.696 23.7848 12.6909 23.7809L7.06355 14.1447C6.40772 13.0216 6.47125 11.7987 6.8367 10.7246C7.20265 9.6491 7.86795 8.73459 8.39413 8.24339C8.4247 8.21485 8.43465 8.17042 8.41919 8.13151C8.40372 8.0926 8.36601 8.06721 8.32424 8.06759L0.797192 8.13504L0.797007 8.13502C0.796623 8.135 0.79563 8.13494 0.793804 8.13477C0.792456 8.13465 0.790939 8.1345 0.78924 8.13432L0.783013 8.13365L0.779612 8.13327C0.771647 8.13238 0.761869 8.13129 0.752242 8.13047C0.741485 8.12956 0.728798 8.12879 0.717364 8.12931C0.711751 8.12957 0.704481 8.1302 0.697059 8.13205C0.691456 8.13345 0.676318 8.13768 0.664589 8.15158C0.660561 8.15636 0.657447 8.16184 0.655404 8.16775C0.0116398 10.0311 -0.161372 12.0253 0.151852 13.9721Z" fill="white"/>
<path d="M19.5322 21.381C21.0683 20.1497 22.276 18.5558 23.0472 16.7418C23.8184 14.9278 24.129 12.9504 23.9513 10.9865C23.7763 9.05175 23.1327 7.18963 22.077 5.56177L22.0758 5.55997C22.0603 5.53603 22.0447 5.51214 22.0289 5.48831C22.0193 5.47365 22.0028 5.46505 21.9853 5.46555C21.9678 5.46606 21.9518 5.4756 21.943 5.49078L21.8852 5.59042C21.8819 5.59614 21.8798 5.60235 21.8788 5.60867L16.2813 15.2624C15.629 16.3874 14.536 16.9337 13.4236 17.1431C12.3098 17.3528 11.1885 17.222 10.5031 17.0043C10.4633 16.9917 10.4198 17.0048 10.3937 17.0375C10.3675 17.0701 10.364 17.1155 10.3849 17.1518L14.1469 23.6896L14.1469 23.6897C14.1471 23.6901 14.1475 23.691 14.1483 23.6927C14.1495 23.6952 14.1509 23.6985 14.1526 23.7026L14.154 23.7058C14.1571 23.7132 14.161 23.7223 14.165 23.7311C14.1695 23.7409 14.1751 23.7524 14.1812 23.7621C14.1841 23.7669 14.1883 23.7729 14.1935 23.7785C14.1975 23.7827 14.2086 23.7938 14.2265 23.7972C14.2326 23.7984 14.2389 23.7984 14.245 23.7973C16.1795 23.4425 17.9961 22.6123 19.5322 21.381Z" fill="white"/>
<path d="M11.9531 16.1404C9.66082 16.1404 7.80253 14.277 7.80253 11.9784C7.80253 9.67981 9.66082 7.81642 11.9531 7.81642C14.2454 7.81642 16.1037 9.67981 16.1037 11.9784C16.1037 14.277 14.2454 16.1404 11.9531 16.1404Z" fill="white"/>
</svg>
