<svg width="24" height="24" viewBox="0 0 24 24" fill="none" xmlns="http://www.w3.org/2000/svg">
<g clip-path="url(#clip0)">
<path fill-rule="evenodd" clip-rule="evenodd" d="M5.63624 4L24 12.2012L24 14.3535L23.1443 15.0119C23.0848 14.8391 22.9209 14.715 22.7279 14.715C22.4847 14.715 22.2876 14.9122 22.2876 15.1554C22.2876 15.3077 22.3649 15.442 22.4825 15.5211L19.6512 17.6996L13.691 14.846C13.8162 14.6045 13.8803 14.4569 13.9809 14.1658L15.0463 14.6661V13.9346L12.9914 13.0026V13.7365L13.7511 14.0687C13.6474 14.3491 13.5811 14.4912 13.4577 14.7343L11.1691 13.6386C11.3057 13.3562 11.3678 13.2081 11.4387 12.9728L12.5021 13.4429V12.8069L10.4472 11.8773V12.5133L11.2102 12.8634C11.1325 13.1336 11.0637 13.2753 10.9271 13.5228L8.5214 12.371C8.65182 12.1215 8.71523 11.9764 8.79281 11.6988L9.86007 12.1708V11.4858L7.80513 10.6052V11.2901L8.5629 11.5962C8.47897 11.8719 8.41224 12.0129 8.28033 12.2556L5.99483 11.1614C6.11779 10.9216 6.17493 10.7838 6.24947 10.5305L7.31586 10.9966V10.3116L5.26092 9.43091V10.1159L6.00839 10.4321C5.92391 10.6914 5.86562 10.8232 5.7502 11.0442L3.35277 9.89642C3.47112 9.62989 3.52681 9.4894 3.60454 9.25516L4.6738 9.72447V9.03949L2.61886 8.1588V8.84378L3.37524 9.1747C3.29165 9.42904 3.23029 9.55893 3.10813 9.7793L0.514996 8.53779V6.30844L5.63624 4ZM19.6542 17.4606C19.6253 17.4606 19.6019 17.4346 19.6019 17.4025V15.4473C19.6019 15.4152 19.6253 15.3892 19.6542 15.3892C19.683 15.3892 19.7064 15.4152 19.7064 15.4473V17.4025C19.7064 17.4346 19.683 17.4606 19.6542 17.4606ZM23.782 12.5016C23.8063 12.4844 23.8179 12.4462 23.8078 12.4162C23.7977 12.3862 23.7697 12.3757 23.7453 12.3928L19.7505 15.1989C19.7261 15.216 19.7146 15.2542 19.7247 15.2842C19.7348 15.3143 19.7628 15.3247 19.7872 15.3076L23.782 12.5016ZM19.5835 15.2862C19.5765 15.3174 19.5493 15.3326 19.5227 15.3202L0.748573 6.6015C0.721961 6.58914 0.706006 6.5539 0.712939 6.52278C0.719871 6.49166 0.747065 6.47645 0.773677 6.48881L19.5478 15.2075C19.5745 15.2199 19.5904 15.2551 19.5835 15.2862ZM22.0226 14.2572C22.0982 14.2533 22.1737 14.2661 22.2437 14.2948C22.3137 14.3234 22.3765 14.3671 22.4277 14.4229L22.3917 14.456C22.3454 14.4055 22.2885 14.366 22.2252 14.3401C22.1618 14.3141 22.0935 14.3026 22.0252 14.3061C21.9568 14.3096 21.8901 14.3282 21.8297 14.3606C21.7694 14.3929 21.717 14.4381 21.6761 14.4931C21.6353 14.548 21.6071 14.6113 21.5936 14.6784C21.5801 14.7455 21.5815 14.8147 21.5979 14.8812C21.6142 14.9477 21.645 15.0097 21.6881 15.0629C21.7312 15.1161 21.7855 15.1591 21.8471 15.1888L21.8258 15.2329C21.7577 15.2 21.6977 15.1525 21.6501 15.0937C21.6024 15.0349 21.5684 14.9663 21.5503 14.8929C21.5323 14.8194 21.5307 14.7429 21.5456 14.6687C21.5606 14.5945 21.5918 14.5246 21.6369 14.4639C21.682 14.4032 21.74 14.3532 21.8066 14.3174C21.8733 14.2817 21.9471 14.2612 22.0226 14.2572Z" fill="white"/>
<path d="M23.0266 15.4083C23.0573 15.4227 23.0892 15.4386 23.1217 15.4559C23.3253 15.564 23.5302 15.7159 23.6114 15.9037C23.6504 15.9938 23.6619 16.0942 23.6283 16.2089C23.5942 16.3256 23.5115 16.4631 23.3511 16.6207C23.029 16.9372 22.4118 17.3167 21.3284 17.7557C19.1157 18.6522 18.1211 20.52 17.6798 22.1509C17.459 22.9666 17.3757 23.7261 17.3474 24.2814C17.3333 24.5592 17.3329 24.7863 17.3361 24.9443C17.3377 25.0233 17.3402 25.085 17.3423 25.1272C17.343 25.1404 17.3436 25.1517 17.3441 25.161C17.3445 25.1666 17.3448 25.1714 17.345 25.1756C17.3454 25.1811 17.3457 25.1853 17.3459 25.1882L17.3461 25.1916L17.3462 25.1925L17.3462 25.1927C17.3462 25.1927 17.3462 25.1928 17.3491 25.1926C17.3555 25.1921 17.3763 25.1906 17.4438 25.1854C17.5413 25.178 17.5413 25.178 17.5413 25.178L17.5413 25.1779L17.5413 25.1773L17.5411 25.1745C17.5409 25.1721 17.5407 25.1683 17.5403 25.1632C17.5397 25.153 17.5388 25.1377 17.5378 25.1175C17.5358 25.0771 17.5333 25.0173 17.5318 24.9403C17.5287 24.7864 17.529 24.564 17.5429 24.2914C17.5706 23.7458 17.6525 23.0008 17.8687 22.202C18.3012 20.6036 19.2673 18.8019 21.4019 17.9371C22.4921 17.4953 23.1382 17.1042 23.4883 16.7603C23.6641 16.5876 23.7698 16.4223 23.8162 16.2638C23.8631 16.1033 23.8473 15.956 23.791 15.826C23.6818 15.5734 23.4244 15.395 23.2135 15.283C23.1787 15.2645 23.1446 15.2476 23.1118 15.2321C23.1167 15.2073 23.1193 15.1816 23.1193 15.1554C23.1193 15.1165 23.1137 15.079 23.1031 15.0436C23.055 14.8819 22.9052 14.764 22.7279 14.764C22.5117 14.764 22.3365 14.9392 22.3365 15.1554C22.3365 15.2967 22.4114 15.4206 22.5237 15.4894C22.5832 15.5258 22.6531 15.5468 22.7279 15.5468C22.8476 15.5468 22.9548 15.493 23.0266 15.4083Z" fill="white"/>
<path d="M2.66779 8.25666L4.62487 9.08842V9.67554L3.6213 9.22394L3.67399 9.05767C3.68741 9.01532 3.68056 8.96915 3.65541 8.93253L3.64768 8.92127C3.63081 8.89669 3.60478 8.8799 3.57543 8.87464C3.52073 8.86485 3.46717 8.89684 3.44986 8.94965L3.39355 9.12145L2.66779 8.79485L2.66779 8.25666Z" fill="white"/>
<path d="M3.48005 8.93907C3.49219 8.89479 3.54961 8.88052 3.58104 8.91398L3.6213 8.95684C3.64303 8.97998 3.65239 9.01111 3.64472 9.04191C3.6354 9.07928 3.61982 9.1374 3.59627 9.21267C3.59201 9.22628 3.58749 9.24045 3.5827 9.25516C3.5317 9.4118 3.44997 9.62967 3.32529 9.88327C2.76321 11.0265 1.32816 12.8959 -2.10108 13.1557C-6.45955 13.486 -7.59666 16.4162 -7.81438 17.1511C-7.83496 17.2206 -7.92671 17.2447 -7.97631 17.1919C-7.99614 17.1708 -8.00454 17.1418 -7.99759 17.1137C-7.89238 16.6882 -6.92042 13.3501 -2.25089 12.9962C1.10846 12.7417 2.55408 10.9425 3.14001 9.79457C3.27451 9.53105 3.36371 9.30185 3.42036 9.13351C3.44702 9.0543 3.46647 8.98856 3.48005 8.93907Z" fill="white"/>
<path d="M8.76731 11.3603C8.73588 11.3269 8.67846 11.3411 8.66631 11.3854C8.65274 11.4349 8.63329 11.5007 8.60663 11.5799C8.60335 11.5896 8.59996 11.5996 8.59646 11.6097C8.53726 11.7813 8.44615 12.0099 8.31115 12.2703C7.71563 13.4194 6.26617 15.1902 2.93538 15.4426C-1.73415 15.7964 -2.70611 19.1346 -2.81132 19.56C-2.81827 19.5881 -2.80987 19.6171 -2.79004 19.6382C-2.74044 19.691 -2.64869 19.6669 -2.62811 19.5975C-2.41039 18.8625 -1.27328 15.9324 3.08519 15.6021C6.48496 15.3444 7.92467 13.5049 8.49687 12.3593C8.63305 12.0866 8.7201 11.8533 8.77273 11.6899C8.77614 11.6793 8.77941 11.669 8.78254 11.659C8.80609 11.5838 8.82167 11.5256 8.83099 11.4883C8.83866 11.4575 8.8293 11.4263 8.80757 11.4032L8.76731 11.3603Z" fill="white"/>
<path d="M13.9536 13.8067C13.9221 13.7732 13.8647 13.7875 13.8526 13.8318C13.839 13.8813 13.8196 13.947 13.7929 14.0262C13.7872 14.0432 13.7811 14.0608 13.7748 14.079C13.7131 14.2544 13.6195 14.4849 13.4821 14.746C12.8772 15.8956 11.4242 17.6387 8.12165 17.8889C3.45212 18.2428 2.48016 21.5809 2.37495 22.0064C2.368 22.0345 2.3764 22.0635 2.39623 22.0846C2.44583 22.1374 2.53758 22.1133 2.55816 22.0438C2.77588 21.3089 3.91299 18.3787 8.27146 18.0484C11.6422 17.793 13.0862 15.9826 13.6683 14.8352C13.8083 14.5591 13.8985 14.3214 13.9536 14.1529C13.959 14.1364 13.9641 14.1205 13.9688 14.1054C13.9924 14.0301 14.0079 13.972 14.0173 13.9346C14.0249 13.9038 14.0156 13.8727 13.9938 13.8496L13.9536 13.8067Z" fill="white"/>
<path d="M11.4094 12.6324C11.3779 12.599 11.3205 12.6132 11.3084 12.6575C11.2948 12.707 11.2754 12.7728 11.2487 12.852C11.1904 13.0253 11.0975 13.2632 10.9562 13.5367C10.3625 14.6856 8.91379 16.4619 5.57744 16.7147C0.90791 17.0685 -0.064046 20.4067 -0.16926 20.8321C-0.176211 20.8603 -0.167807 20.8892 -0.147981 20.9103C-0.0983747 20.9631 -0.00662669 20.939 0.0139532 20.8696C0.231668 20.1346 1.36878 17.2045 5.72725 16.8742C9.13276 16.6161 10.5716 14.7708 11.1418 13.6256C11.2763 13.3555 11.3625 13.1244 11.4147 12.9622C11.4182 12.9516 11.4215 12.9412 11.4246 12.9311C11.4482 12.8559 11.4637 12.7977 11.473 12.7604C11.4807 12.7296 11.4714 12.6984 11.4496 12.6753L11.4094 12.6324Z" fill="white"/>
<path d="M6.2231 10.1861C6.19167 10.1526 6.13425 10.1669 6.12211 10.2112C6.10853 10.2607 6.08908 10.3264 6.06242 10.4056C6.00619 10.5727 5.91787 10.7998 5.78501 11.0609C5.20098 12.2086 3.75615 14.0133 0.391169 14.2683C-4.27836 14.6222 -5.25032 17.9603 -5.35553 18.3858C-5.36248 18.4139 -5.35408 18.4429 -5.33425 18.464C-5.28465 18.5168 -5.1929 18.4927 -5.17232 18.4232C-4.9546 17.6883 -3.81749 14.7581 0.540979 14.4278C3.97603 14.1675 5.41013 12.2923 5.9702 11.1496C6.10492 10.8747 6.18907 10.6422 6.23833 10.4848C6.26188 10.4095 6.27746 10.3514 6.28678 10.314C6.29445 10.2832 6.2851 10.2521 6.26337 10.2289L6.2231 10.1861Z" fill="white"/>
<path d="M13.0403 13.1004L14.9974 13.9811V14.5683L13.9938 14.1166L14.0367 13.982C14.0519 13.934 14.0478 13.8819 14.0251 13.8369L14.0205 13.8277C14.0135 13.8138 14.0041 13.8012 13.9928 13.7905L13.9774 13.7759C13.9577 13.7574 13.9307 13.7487 13.9038 13.7523C13.8683 13.7572 13.8391 13.7828 13.8296 13.8174L13.7748 14.0181L13.0403 13.6876V13.1004Z" fill="white"/>
<path d="M10.4961 11.9262L12.4532 12.8069V13.394L11.4496 12.9424L11.5018 12.7778C11.5152 12.7355 11.5041 12.6892 11.473 12.6575L11.4246 12.6112L11.4156 12.6066C11.3672 12.5821 11.3082 12.6017 11.2839 12.6502L11.279 12.6601L11.2205 12.8393L10.4961 12.5133V11.9262Z" fill="white"/>
<path d="M7.85406 10.703L9.81114 11.5348V12.1219L8.79882 11.6664L8.88153 11.4369L8.80757 11.3526L8.68582 11.2901L8.63689 11.388L8.57661 11.5664L7.85406 11.2412V10.703Z" fill="white"/>
<path d="M5.30985 9.52876L7.26693 10.3605V10.9476L6.26337 10.496L6.31342 10.3381C6.32833 10.291 6.31845 10.2396 6.28715 10.2015C6.27155 10.1824 6.25138 10.1677 6.22853 10.1585L6.2168 10.1538C6.16519 10.1331 6.10678 10.1597 6.08842 10.2122L6.02641 10.3894L5.30985 10.067L5.30985 9.52876Z" fill="white"/>
</g>
<defs>
<clipPath id="clip0">
<rect width="24" height="24" fill="white"/>
</clipPath>
</defs>
</svg>
