<svg width="24" height="24" viewBox="0 0 24 24" fill="none" xmlns="http://www.w3.org/2000/svg">
<path fill-rule="evenodd" clip-rule="evenodd" d="M8.44355 1.35354C7.86028 1.5246 7.52302 2.14686 7.69027 2.7434C8.1081 4.23368 6.41719 5.40014 5.22266 4.44566C4.74451 4.06359 4.05404 4.15029 3.68047 4.63932L3.00405 5.52478C2.63048 6.0138 2.71525 6.71996 3.19341 7.10203C4.38795 8.05652 3.69035 10.0167 2.17538 9.9626C1.56897 9.94095 1.0602 10.4262 1.03903 11.0464L1.00068 12.1693C0.979506 12.7895 1.45394 13.3099 2.06035 13.3315C3.57531 13.3856 4.13752 15.3908 2.8808 16.2577C2.37775 16.6048 2.24501 17.3032 2.58432 17.8176L3.1987 18.7492C3.53801 19.2637 4.22088 19.3994 4.72392 19.0524C5.98064 18.1855 7.58786 19.4698 7.0694 20.9266C6.86187 21.5097 7.15586 22.1546 7.72605 22.3668L8.75848 22.7511C9.32867 22.9634 9.95915 22.6627 10.1667 22.0795C10.6851 20.6227 12.7235 20.6955 13.1414 22.1858C13.3086 22.7823 13.917 23.1272 14.5003 22.9562L15.5564 22.6465C16.1397 22.4754 16.477 21.8531 16.3097 21.2566C15.8919 19.7663 17.5828 18.5998 18.7774 19.5543C19.2555 19.9364 19.946 19.8497 20.3195 19.3607L20.996 18.4752C21.3695 17.9862 21.2848 17.28 20.8066 16.898C19.6121 15.9435 20.3097 13.9833 21.8246 14.0374C22.431 14.0591 22.9398 13.5738 22.961 12.9536L22.9993 11.8307C23.0205 11.2105 22.5461 10.6901 21.9396 10.6685C20.4247 10.6144 19.8625 8.60919 21.1192 7.74224C21.6223 7.39522 21.755 6.69683 21.4157 6.18234L20.8013 5.25079C20.462 4.7363 19.7791 4.60055 19.2761 4.94757C18.0194 5.81452 16.4121 4.53027 16.9306 3.07341C17.1381 2.49026 16.8441 1.84545 16.2739 1.6332L15.2415 1.24889C14.6713 1.03664 14.0408 1.33731 13.8333 1.92047C13.3148 3.37732 11.2765 3.30451 10.8586 1.81423C10.6914 1.21769 10.083 0.872763 9.49968 1.04382L8.44355 1.35354ZM12 19.3333C16.0501 19.3333 19.3333 16.0501 19.3333 12C19.3333 7.94991 16.0501 4.66667 12 4.66667C7.94991 4.66667 4.66667 7.94991 4.66667 12C4.66667 16.0501 7.94991 19.3333 12 19.3333Z" fill="white"/>
</svg>
