<svg width="24" height="24" viewBox="0 0 24 24" fill="none" xmlns="http://www.w3.org/2000/svg">
<path fill-rule="evenodd" clip-rule="evenodd" d="M17.991 14.5536H12.1473C12.1202 14.5536 12.0982 14.5316 12.0982 14.5045V10.0848C12.0982 10.0577 12.1202 10.0357 12.1473 10.0357H22.7544C22.768 10.0357 22.781 10.0413 22.7903 10.0513C22.7942 10.0554 22.7972 10.0601 22.7994 10.0651L22.8276 10.0601C22.8333 10.0923 22.839 10.1246 22.8445 10.1569C23.2752 12.6913 22.8048 15.2978 21.513 17.5229C20.2048 19.7763 18.1391 21.4921 15.684 22.3648C13.2289 23.2374 10.5437 23.2102 8.10672 22.288C5.66977 21.3658 3.63932 19.6084 2.37702 17.329C1.11473 15.0495 0.702571 12.396 1.21396 9.84109C1.72535 7.28615 3.12708 4.9957 5.16947 3.37773C7.21186 1.75975 9.76228 0.919309 12.3664 1.00611C14.9379 1.09182 17.3968 2.07611 19.3165 3.78605C19.3409 3.80782 19.3653 3.8297 19.3895 3.8517L16.3749 7.17586L16.3727 7.1739C15.2303 6.13881 13.7577 5.54251 12.2169 5.49115C10.6752 5.43976 9.16522 5.93734 7.95604 6.89525C6.74685 7.85316 5.91697 9.2092 5.61421 10.7218C5.31144 12.2345 5.55546 13.8055 6.30279 15.155C7.05012 16.5045 8.25224 17.5449 9.69501 18.0909C11.1378 18.6369 12.7275 18.653 14.1811 18.1364C15.6346 17.6197 16.8576 16.6039 17.6321 15.2698C17.7669 15.0376 17.8866 14.7983 17.991 14.5536ZM2.53427 7.06146C2.49178 7.02774 2.43 7.03485 2.39628 7.07734C2.36256 7.11982 2.36967 7.1816 2.41216 7.21532L5.5059 9.67068C5.54839 9.7044 5.61017 9.69729 5.64389 9.6548C5.67761 9.61232 5.6705 9.55054 5.62801 9.51682L2.53427 7.06146ZM5.77457 14.6802C5.81739 14.6469 5.8251 14.5852 5.7918 14.5424C5.7585 14.4996 5.6968 14.4918 5.65398 14.5252L2.56023 16.9314C2.51742 16.9647 2.50971 17.0264 2.54301 17.0692C2.57631 17.112 2.63801 17.1198 2.68083 17.0865L5.77457 14.6802ZM15.9405 17.5704C15.898 17.5367 15.8362 17.5438 15.8025 17.5863C15.7688 17.6288 15.7759 17.6905 15.8184 17.7242L18.9121 20.1796C18.9546 20.2133 19.0164 20.2062 19.0501 20.1637C19.0838 20.1212 19.0767 20.0595 19.0342 20.0257L15.9405 17.5704Z" fill="white"/>
</svg>
