<svg width="24" height="24" viewBox="0 0 24 24" fill="none" xmlns="http://www.w3.org/2000/svg">
<path fill-rule="evenodd" clip-rule="evenodd" d="M12.2366 1.1294C12.126 0.956867 11.874 0.956867 11.7634 1.1294L10.0146 3.85882C9.93625 3.98102 9.77777 4.02349 9.64886 3.95681L6.7696 2.46749C6.58759 2.37334 6.36927 2.49939 6.3598 2.70408L6.20996 5.94226C6.20325 6.08724 6.08724 6.20325 5.94226 6.20996L2.70408 6.3598C2.49939 6.36927 2.37334 6.58759 2.46749 6.7696L3.95681 9.64886C4.02349 9.77777 3.98102 9.93625 3.85882 10.0146L1.1294 11.7634C0.956867 11.874 0.956867 12.126 1.1294 12.2366L3.85882 13.9854C3.98102 14.0637 4.02349 14.2222 3.95681 14.3511L2.46749 17.2304C2.37334 17.4124 2.49939 17.6307 2.70408 17.6402L5.94226 17.79C6.08724 17.7967 6.20325 17.9128 6.20996 18.0577L6.3598 21.2959C6.36927 21.5006 6.58759 21.6267 6.7696 21.5325L9.64886 20.0432C9.77777 19.9765 9.93625 20.019 10.0146 20.1412L11.7634 22.8706C11.874 23.0431 12.126 23.0431 12.2366 22.8706L13.9854 20.1412C14.0637 20.019 14.2222 19.9765 14.3511 20.0432L17.2304 21.5325C17.4124 21.6267 17.6307 21.5006 17.6402 21.2959L17.79 18.0577C17.7967 17.9128 17.9128 17.7967 18.0577 17.79L21.2959 17.6402C21.5006 17.6307 21.6267 17.4124 21.5325 17.2304L20.0432 14.3511C19.9765 14.2222 20.019 14.0637 20.1412 13.9854L22.8706 12.2366C23.0431 12.126 23.0431 11.874 22.8706 11.7634L20.1412 10.0146C20.019 9.93625 19.9765 9.77777 20.0432 9.64886L21.5325 6.7696C21.6267 6.58759 21.5006 6.36927 21.2959 6.3598L18.0577 6.20996C17.9128 6.20325 17.7967 6.08724 17.79 5.94226L17.6402 2.70408C17.6307 2.49939 17.4124 2.37334 17.2304 2.46749L14.3511 3.95681C14.2222 4.02349 14.0637 3.98102 13.9854 3.85882L12.2366 1.1294ZM7.83284 15.8125C7.82309 15.7703 7.83134 15.7339 7.85762 15.7031C8.07043 15.8396 8.28271 15.9353 8.49446 15.9901C8.70972 16.0423 8.92887 16.0668 9.1519 16.0637C9.27651 16.0248 9.36465 15.9776 9.41633 15.9221C9.47152 15.8641 9.50826 15.8034 9.52656 15.7401C9.54836 15.6742 9.56402 15.6074 9.57352 15.5398C9.58303 15.4722 9.6044 15.4093 9.63764 15.3513C9.61741 15.3391 9.60334 15.3277 9.59541 15.3172C9.59099 15.304 9.58921 15.2943 9.59008 15.2882C9.5918 15.2759 9.59178 15.2649 9.59 15.2553C9.58822 15.2456 9.5803 15.2351 9.56622 15.2237C9.5899 15.2114 9.60614 15.2074 9.61493 15.2117C9.62372 15.2161 9.62984 15.206 9.6333 15.1814C9.6208 15.0919 9.60655 15.0036 9.59055 14.9167C9.57455 14.8298 9.57742 14.7425 9.59918 14.6546C9.56122 14.5678 9.52367 14.4669 9.48653 14.3519C9.44939 14.237 9.41445 14.1286 9.38173 14.0268C9.30688 13.9348 9.24565 13.8462 9.19804 13.7612C9.14779 13.6726 9.10193 13.5862 9.06047 13.502C9.02251 13.4151 8.9828 13.3296 8.94134 13.2454C8.90074 13.1551 8.85135 13.0603 8.79317 12.9612C8.80888 12.9164 8.81492 12.8734 8.81132 12.8321C8.80507 12.7873 8.79399 12.7435 8.77809 12.7005C8.76219 12.6575 8.74453 12.6158 8.72512 12.5755C8.70922 12.5325 8.69946 12.4903 8.69585 12.4491C8.63777 12.3939 8.57006 12.3515 8.49272 12.3218C8.41538 12.2921 8.33321 12.2633 8.24621 12.2354C8.18833 12.268 8.13261 12.2853 8.07905 12.2871C8.02285 12.2855 7.9684 12.2826 7.9157 12.2783C7.86036 12.2705 7.80416 12.2689 7.74709 12.2734C7.69089 12.2718 7.63385 12.2873 7.57596 12.3199C7.58663 12.3778 7.60477 12.4384 7.63038 12.5015C7.65335 12.5612 7.67763 12.6226 7.70324 12.6858C7.72621 12.7454 7.7461 12.8047 7.76292 12.8635C7.77974 12.9223 7.78426 12.9793 7.77648 13.0347C7.8779 13.2276 7.97843 13.4158 8.07808 13.5991C8.17772 13.7824 8.25716 13.9644 8.31641 14.1451C8.37916 14.3233 8.41556 14.4992 8.42562 14.6731C8.43918 14.8443 8.41058 15.0143 8.33984 15.183C8.2501 15.1077 8.17177 15.0293 8.10485 14.9478C8.03529 14.8628 7.97144 14.7817 7.91331 14.7045C7.85604 14.6212 7.80009 14.5397 7.74547 14.4599C7.69085 14.3801 7.62921 14.3056 7.56056 14.2364C7.57372 14.232 7.58073 14.2267 7.5816 14.2206L7.58549 14.1929C7.58371 14.1832 7.58325 14.1753 7.58411 14.1692C7.58584 14.1569 7.59197 14.1468 7.60249 14.1389C7.56554 14.1117 7.54265 14.085 7.53381 14.0587C7.52233 14.0288 7.51524 14.0012 7.51255 13.9757C7.50721 13.9468 7.49705 13.9187 7.48206 13.8915C7.47058 13.8617 7.44329 13.8328 7.4002 13.8048C7.42302 13.7986 7.43354 13.7906 7.43176 13.781C7.43349 13.7687 7.44268 13.759 7.45935 13.7519C7.43298 13.7388 7.41583 13.727 7.4079 13.7165L7.38412 13.6849C7.38234 13.6753 7.37706 13.6683 7.36827 13.6639C7.36298 13.6569 7.34672 13.6499 7.31948 13.6429C7.31857 13.6271 7.32426 13.6201 7.33656 13.6218C7.34972 13.6174 7.35188 13.602 7.34304 13.5757C7.2656 13.5021 7.17899 13.4492 7.0832 13.4169C6.98477 13.3811 6.88242 13.362 6.77617 13.3597C6.67342 13.3546 6.56718 13.3632 6.45747 13.3854C6.34862 13.4015 6.24198 13.4241 6.13755 13.4533C6.25908 13.9939 6.37405 14.5478 6.48247 15.1148C6.59089 15.6818 6.69659 16.2124 6.79957 16.7065C6.8356 16.7179 6.87165 16.7402 6.90773 16.7735C6.94117 16.8032 6.96716 16.8414 6.98571 16.8879C7.04724 16.9185 7.11539 16.9578 7.19014 17.006C7.26839 17.0514 7.3484 17.0956 7.43016 17.1385C7.51279 17.1751 7.59496 17.2039 7.67667 17.2248C7.76189 17.2431 7.84574 17.2376 7.92821 17.2085C7.95362 17.1838 7.96981 17.1579 7.97677 17.1306C7.98988 17.1043 8.01837 17.08 8.06222 17.058C8.04286 17.0396 8.02835 17.0313 8.0187 17.0331C8.00904 17.0348 8.00419 17.0248 8.00414 17.0028C8.06289 16.964 8.09353 16.9244 8.09607 16.884C8.09862 16.8436 8.09018 16.8033 8.07077 16.7629C8.05487 16.7199 8.03589 16.6765 8.01384 16.6327C7.99179 16.5888 7.98686 16.5458 7.99906 16.5036C7.95861 16.4791 7.93264 16.4519 7.92116 16.4221C7.90703 16.3888 7.89906 16.3563 7.89723 16.3247C7.89276 16.2896 7.88961 16.2562 7.88778 16.2246C7.88946 16.1904 7.88148 16.1579 7.86385 16.1272C7.8884 16.1087 7.89668 16.0832 7.8887 16.0507C7.88159 16.0121 7.8714 15.9731 7.85814 15.9336C7.84839 15.8915 7.83995 15.8511 7.83284 15.8125ZM11.2879 10.067C11.2808 10.0503 11.2663 10.0311 11.2443 10.0092C11.1566 10.0313 11.0701 10.0442 10.9849 10.0479C10.9006 10.0455 10.8185 10.0277 10.7385 9.9945C10.7658 10.0234 10.7649 10.0405 10.736 10.0459C10.7079 10.0451 10.6987 10.0657 10.7084 10.1078C10.6804 10.129 10.6387 10.1357 10.5834 10.1279C10.4572 10.2669 10.3416 10.387 10.2364 10.4883C10.1313 10.5895 10.031 10.6898 9.9355 10.7893C9.84087 10.8826 9.74671 10.9838 9.65299 11.0928C9.56279 11.1993 9.46473 11.3282 9.35883 11.4794C9.29489 11.5551 9.23315 11.6264 9.17359 11.6933C9.11403 11.7601 9.06237 11.8265 9.01862 11.8925C8.97486 11.9585 8.93989 12.0288 8.91372 12.1035C8.88841 12.172 8.87804 12.2458 8.88261 12.3248C8.94506 12.3712 9.00225 12.4216 9.05419 12.4759C9.10348 12.5267 9.15452 12.5762 9.20732 12.6244C9.25747 12.6691 9.31421 12.7115 9.37752 12.7518C9.4417 12.7859 9.51551 12.8072 9.59895 12.8158C9.62461 12.901 9.64455 12.9821 9.65878 13.0594C9.67387 13.1305 9.6872 13.2029 9.69879 13.2766C9.71388 13.3477 9.73029 13.4206 9.74802 13.4952C9.76575 13.5698 9.78788 13.6465 9.8144 13.7255C9.78721 13.7405 9.77847 13.7581 9.78818 13.7783C9.79524 13.7949 9.79132 13.8116 9.77643 13.8283C9.82395 13.8695 9.84602 13.9243 9.84267 13.9928C9.84282 14.0587 9.85745 14.1219 9.88656 14.1824C9.91304 14.2394 9.95049 14.2964 9.99891 14.3534C10.0508 14.4077 10.1059 14.4625 10.1639 14.5177C10.2194 14.5693 10.2735 14.6193 10.3263 14.6674C10.3791 14.7156 10.4244 14.7612 10.4623 14.8041C10.514 14.7926 10.5567 14.8017 10.5901 14.8315C10.6244 14.8551 10.6648 14.8686 10.7114 14.8721C10.8282 14.8885 10.9484 14.8693 11.0721 14.8146C11.1985 14.7634 11.3208 14.6959 11.4392 14.6122C11.5575 14.5285 11.6675 14.4374 11.7692 14.3388C11.8708 14.2402 11.9553 14.1518 12.0228 14.0735C12.0508 14.0524 12.078 14.0374 12.1043 14.0285C12.1333 14.0232 12.1609 14.0051 12.1872 13.9743C12.2984 13.852 12.4 13.7425 12.492 13.6457C12.5875 13.5462 12.6672 13.4477 12.7311 13.3501C12.795 13.2525 12.8378 13.1488 12.8595 13.0389C12.882 12.923 12.876 12.7873 12.8414 12.632C12.823 12.6513 12.8046 12.6597 12.7862 12.6571C12.7686 12.6484 12.7514 12.6366 12.7347 12.6217C12.718 12.6068 12.6995 12.5932 12.6793 12.581C12.6599 12.5626 12.6379 12.5516 12.6134 12.5482C12.5844 12.5755 12.5529 12.5883 12.5186 12.5866C12.4844 12.5849 12.4488 12.5815 12.4119 12.5763C12.3759 12.565 12.3381 12.555 12.2985 12.5463C12.2564 12.5341 12.2173 12.5333 12.1813 12.5439C12.1218 12.6327 12.0482 12.7211 11.9606 12.8092C11.8739 12.891 11.81 12.9777 11.7689 13.0691C11.6541 13.1501 11.5638 13.2236 11.4981 13.2897C11.4297 13.3522 11.3644 13.4151 11.3022 13.4785C11.2374 13.5383 11.166 13.6004 11.088 13.6647C11.0135 13.7263 10.91 13.7933 10.7776 13.8656C10.7413 13.7445 10.7142 13.6247 10.6964 13.5062C10.6786 13.3877 10.67 13.2705 10.6706 13.1546C10.7232 13.1369 10.7759 13.1082 10.8284 13.0686C10.8819 13.0228 10.9345 12.9941 10.9863 12.9826C11.0012 12.9439 11.0358 12.9096 11.0901 12.8796C11.148 12.847 11.1844 12.8114 11.1992 12.7727C11.2212 12.7726 11.2357 12.77 11.2427 12.7647L11.2847 12.733C11.3715 12.6731 11.4416 12.6092 11.4951 12.5415C11.5493 12.4676 11.5944 12.3924 11.6302 12.316C11.6696 12.2368 11.7027 12.1569 11.7298 12.076C11.7542 11.9917 11.7799 11.9091 11.8069 11.8282C11.7945 11.7826 11.7729 11.7466 11.7421 11.7203C11.7122 11.6879 11.6797 11.663 11.6445 11.6455C11.6121 11.6754 11.5766 11.6939 11.5379 11.7011C11.5002 11.702 11.4598 11.6995 11.4167 11.6934L11.2876 11.6753C11.2419 11.6657 11.2002 11.6614 11.1625 11.6624C11.1484 11.651 11.1435 11.6409 11.1479 11.6321C11.1496 11.6198 11.1421 11.6062 11.1254 11.5913C10.9843 11.7032 10.8436 11.8229 10.7034 11.9506C10.5667 12.0756 10.433 12.1791 10.3024 12.261C10.276 12.2479 10.2509 12.2256 10.2271 12.194C10.2042 12.1563 10.1739 12.127 10.1361 12.106C10.1597 12.0717 10.1846 12.0391 10.2109 12.0083C10.2346 11.974 10.249 11.9384 10.2541 11.9015C10.3296 11.8557 10.3782 11.8108 10.4 11.7669C10.4254 11.7203 10.4675 11.6886 10.5263 11.6717C10.5891 11.5144 10.6705 11.3816 10.7704 11.2734C10.8737 11.1625 10.9749 11.056 11.0739 10.954C11.1703 10.8484 11.2499 10.7389 11.3129 10.6254C11.3767 10.5059 11.4005 10.3587 11.3843 10.184C11.3588 10.1648 11.3421 10.1499 11.3342 10.1393L11.3064 10.1025C11.302 10.0894 11.2958 10.0775 11.2879 10.067ZM15.8814 10.8772C16.037 10.9304 16.1972 10.9388 16.3622 10.9024C16.377 10.8418 16.4125 10.7904 16.4686 10.7481C16.4966 10.7269 16.5339 10.7071 16.5804 10.6886C16.6616 10.4899 16.7108 10.2852 16.7279 10.0744C16.7423 9.86012 16.7383 9.64324 16.7158 9.42376C16.6907 9.20077 16.6516 8.97738 16.5984 8.75358C16.5487 8.52714 16.4955 8.30334 16.4388 8.08219C16.3937 7.91281 16.3502 7.74212 16.3086 7.5701C16.2704 7.39544 16.2367 7.22297 16.2073 7.05268C16.1175 6.95542 16.0295 6.87878 15.9433 6.82278C15.8607 6.76413 15.7758 6.72086 15.6888 6.69296C15.6018 6.66505 15.51 6.64902 15.4134 6.64485C15.3177 6.63453 15.2128 6.63389 15.0986 6.64293C15.0998 6.79045 15.1279 6.98093 15.1829 7.21439C15.2414 7.4452 15.3038 7.68127 15.3702 7.9226C15.4163 8.08583 15.461 8.2473 15.5044 8.40702C15.5478 8.56674 15.5828 8.71901 15.6095 8.86384C15.637 9.00252 15.6531 9.13332 15.6578 9.25625C15.6633 9.37302 15.6534 9.47666 15.6282 9.56717L15.5407 9.88875C15.502 9.87392 15.4642 9.85293 15.4272 9.82579C15.3903 9.79865 15.3582 9.77062 15.3309 9.74171C15.2975 9.71193 15.2693 9.67818 15.2464 9.64048L15.1671 9.53528C15.1495 9.50459 15.1279 9.46864 15.1023 9.42742C15.0803 9.38357 15.0511 9.32304 15.015 9.24585L14.8522 8.89849C14.831 8.84848 14.8085 8.79672 14.7846 8.74321C14.7582 8.6862 14.7313 8.63225 14.7039 8.58138C14.6801 8.52787 14.6571 8.47919 14.6351 8.43533C14.613 8.39148 14.5945 8.35596 14.5795 8.32877C14.5409 8.31393 14.5004 8.30041 14.4583 8.28821C14.4196 8.27337 14.3778 8.2581 14.333 8.2424C14.2996 8.23457 14.2632 8.22631 14.2236 8.21762C14.185 8.20278 14.1432 8.18751 14.0984 8.1718C14.0361 8.19126 13.9703 8.20239 13.9009 8.20518C13.835 8.20533 13.7749 8.19844 13.7204 8.18451C13.7065 8.26094 13.6993 8.35711 13.6987 8.47302C13.6981 8.58894 13.7023 8.71494 13.7114 8.85102C13.7213 8.98096 13.7335 9.11748 13.7479 9.26058C13.7631 9.39753 13.7761 9.5279 13.787 9.65169C13.8013 9.7948 13.8152 9.91902 13.8286 10.0244C13.8394 10.1262 13.8462 10.2228 13.8491 10.3141C13.8554 10.4028 13.8569 10.4923 13.8536 10.5828C13.8503 10.6732 13.8404 10.7769 13.824 10.8937C13.8111 10.9859 13.7941 11.0729 13.7733 11.1546C13.7567 11.2275 13.7371 11.3 13.7145 11.3721C13.6918 11.4441 13.6634 11.5013 13.6292 11.5435C13.4882 11.298 13.3846 11.0984 13.3184 10.9449C13.2769 10.8607 13.2442 10.7809 13.2203 10.7054C13.1859 10.6159 13.1479 10.5071 13.1063 10.379C13.0648 10.2509 13.0219 10.121 12.9777 9.98941C12.9343 9.85165 12.8888 9.71828 12.8411 9.5893C12.7942 9.45418 12.7466 9.33618 12.698 9.23531C12.5979 9.23378 12.5048 9.22696 12.4187 9.21487C12.3362 9.20012 12.2439 9.17619 12.142 9.14305C12.1192 9.14925 12.0933 9.15501 12.0643 9.16035C12.0353 9.16568 12.0028 9.16268 11.9668 9.15135C11.9116 9.20943 11.8798 9.29117 11.8712 9.39656C11.86 9.49845 11.8629 9.61172 11.8799 9.73637C11.8977 9.85488 11.9239 9.98083 11.9585 10.1142C11.9965 10.245 12.0341 10.3678 12.0713 10.4828C12.1155 10.6144 12.1742 10.7653 12.2475 10.9355L12.4699 11.4276C12.5475 11.589 12.6207 11.7372 12.6895 11.8723C12.7557 12.0039 12.802 12.0982 12.8285 12.1552C12.9059 12.2068 12.978 12.2514 13.0448 12.289C13.1116 12.3267 13.1907 12.366 13.2822 12.4071C13.3173 12.4245 13.3507 12.4433 13.3824 12.4635C13.4176 12.4809 13.4558 12.4989 13.4971 12.5172C13.6016 12.5319 13.6873 12.5361 13.754 12.5298C13.8207 12.5235 13.9006 12.5128 13.9936 12.4976L14.1529 12.4683C14.2836 12.3644 14.3904 12.2509 14.4736 12.1277C14.5576 11.9985 14.6266 11.864 14.6808 11.7242C14.7358 11.5783 14.7784 11.4307 14.8088 11.2814C14.8401 11.1259 14.8696 10.9717 14.8974 10.8188L14.9103 10.7266L14.9416 10.5711L14.9611 10.4657L15.0666 10.5181L15.2433 10.5994C15.267 10.609 15.2921 10.6204 15.3184 10.6335L15.3976 10.6728C15.5681 10.7532 15.7294 10.8213 15.8814 10.8772ZM17.9498 8.7413C17.9278 8.71939 17.9027 8.69706 17.8746 8.67429L17.8218 8.64807C17.7691 8.6438 17.7138 8.65797 17.656 8.69059C17.5954 8.71971 17.5288 8.74796 17.4559 8.77535C17.4156 8.79476 17.3682 8.81945 17.3139 8.84943C17.2603 8.87326 17.2226 8.8852 17.2007 8.88525L17.1045 8.89996L17.1087 9.00401C17.1124 9.08917 17.1148 9.15064 17.1157 9.18839C17.1167 9.22615 17.1168 9.25908 17.116 9.28718C17.1125 9.31178 17.1055 9.33901 17.0951 9.36889C17.0846 9.39877 17.0702 9.44535 17.0519 9.50861L17.1851 9.56495L17.1576 9.65985L17.2868 9.67799C17.3078 9.68409 17.3391 9.70729 17.3804 9.74759C17.4033 9.76335 17.4257 9.78217 17.4477 9.80408C17.4671 9.82247 17.5128 9.84301 17.5849 9.86567C17.6261 9.86207 17.667 9.86153 17.7074 9.86408C17.7478 9.86662 17.8035 9.87132 17.8747 9.87819L17.9378 9.83062C17.9799 9.79892 18.0254 9.75359 18.0745 9.69465L18.1349 9.6326L18.1031 9.55759C18.1049 9.5453 18.1101 9.53036 18.1188 9.51278C18.1302 9.4987 18.1368 9.48551 18.1385 9.47322C18.1551 9.4442 18.1704 9.41343 18.1844 9.38091C18.1984 9.34839 18.2049 9.31325 18.2039 9.27549L18.1774 9.19652C18.1589 9.17198 18.1466 9.15927 18.1404 9.15841L18.1285 9.14263C18.1259 9.13912 18.1237 9.13254 18.1219 9.12288C18.1201 9.11323 18.1152 9.09217 18.1073 9.05969L18.0675 8.94124C18.0516 8.89825 18.0374 8.85393 18.025 8.8083C17.9969 8.78553 17.9718 8.7632 17.9498 8.7413Z" fill="white"/>
</svg>
