<svg width="14" height="24" viewBox="0 0 14 24" fill="none" xmlns="http://www.w3.org/2000/svg">
<path d="M7.24138 7.60758C7.24138 8.21923 7.40865 8.7918 7.69995 9.28205L7 10.1662L6.31623 9.25451C6.59753 8.77041 6.75862 8.20781 6.75862 7.60758C6.75862 5.79457 5.28888 4.32482 3.47586 4.32482C1.66284 4.32482 0.193103 5.79457 0.193103 7.60758C0.193103 7.69953 0.196887 7.7906 0.2043 7.88064C0.207848 7.89241 0.211437 7.90417 0.215073 7.91591L0.207158 7.91335C0.20669 7.9083 0.206236 7.90325 0.205794 7.8982C0.205281 7.89235 0.204783 7.8865 0.2043 7.88064C0.0708227 7.43755 0 6.97418 0 6.49724C0 3.32446 3.13401 0.752411 7 0.752411C10.866 0.752411 14 3.32446 14 6.49724C14 6.97418 13.9292 7.43755 13.7957 7.88064C13.7952 7.88618 13.7948 7.89171 13.7943 7.89724H13.7907C13.7924 7.89171 13.794 7.88618 13.7957 7.88064C13.8031 7.7906 13.8069 7.69953 13.8069 7.60758C13.8069 5.79457 12.3372 4.32482 10.5241 4.32482C8.71112 4.32482 7.24138 5.79457 7.24138 7.60758Z" fill="white"/>
<path d="M10.5241 8.59214C11.0679 8.59214 11.5087 8.15134 11.5087 7.60758C11.5087 7.06383 11.0679 6.62302 10.5241 6.62302C9.98038 6.62302 9.53957 7.06383 9.53957 7.60758C9.53957 8.15134 9.98038 8.59214 10.5241 8.59214Z" fill="white"/>
<path d="M3.47586 8.59214C4.01962 8.59214 4.46043 8.15134 4.46043 7.60758C4.46043 7.06383 4.01962 6.62302 3.47586 6.62302C2.9321 6.62302 2.4913 7.06383 2.4913 7.60758C2.4913 8.15134 2.9321 8.59214 3.47586 8.59214Z" fill="white"/>
<path d="M7.86909 21.7041C12.3319 17.7114 13.8522 16.7375 12.8223 10.4076C11.9217 11.5178 11.8415 11.6249 10.6645 12.6474C6.5411 16.2946 7.12202 18.8914 7.86909 21.7041Z" fill="white"/>
<path d="M6.13091 21.7041C1.66813 17.7114 0.147847 16.7375 1.17773 10.4076C2.07828 11.5178 2.15854 11.6249 3.33554 12.6474C7.4589 16.2946 6.87798 18.8914 6.13091 21.7041Z" fill="white"/>
<path d="M8.70575 23.6352C8.28818 23.2275 7.77238 22.9594 7.04711 22.9594C6.48507 22.9594 5.87966 23.2813 5.423 23.6352C5.57976 22.765 6.19541 22.1869 7.04711 22.1869C7.89881 22.1869 8.61787 22.7617 8.70575 23.6352Z" fill="white"/>
</svg>
