<svg width="24" height="24" viewBox="0 0 24 24" fill="none" xmlns="http://www.w3.org/2000/svg">
<path fill-rule="evenodd" clip-rule="evenodd" d="M0 3.2C0 3.08954 0.0895431 3 0.2 3H23.8C23.9105 3 24 3.08954 24 3.2V19.7C24 19.8105 23.9105 19.9 23.8 19.9H18.7C18.7 20.3971 18.2971 20.8 17.8 20.8H6.3C5.80294 20.8 5.4 20.3971 5.4 19.9H0.2C0.0895429 19.9 0 19.8105 0 19.7V3.2ZM0.5 3.6C0.5 3.48954 0.589543 3.4 0.7 3.4H23.3C23.4105 3.4 23.5 3.48954 23.5 3.6V19.3C23.5 19.4105 23.4105 19.5 23.3 19.5H0.7C0.589543 19.5 0.5 19.4105 0.5 19.3V3.6ZM6 19.85H18V19.95H6V19.85ZM8.8 20.2H7.2V20.4H8.8V20.2ZM9.2 20.2H10.8V20.4H9.2V20.2ZM12.8 20.2H11.2V20.4H12.8V20.2ZM13.2 20.2H14.8V20.4H13.2V20.2ZM16.8 20.2H15.2V20.4H16.8V20.2ZM13.6 18.2L14.2 17.6L14.2707 17.6707L13.6707 18.2707L13.6 18.2ZM13.1 18.3L13.2 18.2L13.2707 18.2707L13.1707 18.3707L13.1 18.3ZM13.3 18.5L13.4 18.4L13.4707 18.4707L13.3707 18.5707L13.3 18.5ZM13.4 18L14 17.4L14.0707 17.4707L13.4707 18.0707L13.4 18ZM14.4 17.4L22.0146 9.78536L22.0854 9.85607L14.4707 17.4707L14.4 17.4ZM14.2 17.2L21.5354 9.86464L21.6061 9.93535L14.2707 17.2707L14.2 17.2ZM3.3 11.5L3.4 11.4L3.47071 11.4707L3.37071 11.5707L3.3 11.5ZM3.48535 11.3146L5.4 9.4L5.47071 9.47071L3.55606 11.3854L3.48535 11.3146ZM5.5 9.3L9.4 5.4L9.47071 5.47071L5.57071 9.37071L5.5 9.3ZM3.1 11.3L3.2 11.2L3.27071 11.2707L3.17071 11.3707L3.1 11.3ZM3.33536 11.0646L5.2 9.2L5.27071 9.27071L3.40607 11.1354L3.33536 11.0646ZM5.3 9.1L9.2 5.2L9.27071 5.27071L5.37071 9.17071L5.3 9.1Z" fill="white"/>
</svg>
