<svg width="24" height="24" viewBox="0 0 24 24" fill="none" xmlns="http://www.w3.org/2000/svg">
<path d="M23.9075 7.98862C24.0578 7.7716 24.0222 7.47312 23.8206 7.30479C22.4083 6.12555 20.8311 5.16185 19.1381 4.44714C16.8751 3.49174 14.4495 3 12 3C9.55047 3 7.12492 3.49174 4.86185 4.44714C3.16892 5.16185 1.59171 6.12555 0.179369 7.30479C-0.022242 7.47312 -0.05778 7.7716 0.0925181 7.98862C0.265424 8.23827 0.61183 8.28029 0.844067 8.08701C2.17405 6.98011 3.65802 6.07499 5.25024 5.4028C7.39018 4.49938 9.68375 4.0344 12 4.0344C14.3163 4.0344 16.6098 4.49939 18.7498 5.4028C20.342 6.07499 21.8259 6.98011 23.1559 8.08701C23.3882 8.28029 23.7346 8.23827 23.9075 7.98862Z" fill="white"/>
<path d="M21.9583 10.803C22.1004 10.5978 22.0769 10.3173 21.8967 10.146C20.6282 8.93938 19.1565 7.97358 17.551 7.29576C15.7911 6.5528 13.9049 6.1704 12 6.1704C10.0951 6.1704 8.20891 6.5528 6.44904 7.29576C4.8435 7.97358 3.3718 8.93938 2.10327 10.146C1.92314 10.3173 1.89959 10.5978 2.04167 10.803C2.22289 11.0646 2.59194 11.0949 2.82227 10.877C3.99546 9.76725 5.35551 8.87705 6.83743 8.25143C8.47417 7.56044 10.2284 7.2048 12 7.2048C13.7716 7.2048 15.5258 7.56045 17.1626 8.25143C18.6445 8.87705 20.0045 9.76723 21.1777 10.877C21.4081 11.0949 21.7771 11.0646 21.9583 10.803Z" fill="white"/>
<path d="M19.9478 13.7059C20.0747 13.5227 20.0697 13.2757 19.9282 13.1041C19.7367 12.8719 19.5352 12.648 19.3241 12.4328C18.3623 11.4525 17.2204 10.6749 15.9638 10.1444C14.7071 9.61386 13.3602 9.3408 12 9.3408C10.6398 9.3408 9.2929 9.61386 8.03623 10.1444C6.77956 10.6749 5.63772 11.4525 4.67591 12.4328C4.46482 12.648 4.2633 12.8719 4.07183 13.1041C3.93027 13.2757 3.92533 13.5227 4.05219 13.7059C4.24896 13.99 4.66185 13.9934 4.88291 13.7284C5.04536 13.5338 5.21569 13.3455 5.39356 13.1642C6.26113 12.28 7.29108 11.5786 8.42462 11.1C9.55815 10.6215 10.7731 10.3752 12 10.3752C13.2269 10.3752 14.4418 10.6215 15.5754 11.1001C16.7089 11.5786 17.7389 12.28 18.6064 13.1642C18.7843 13.3455 18.9546 13.5338 19.1171 13.7284C19.3381 13.9934 19.751 13.99 19.9478 13.7059Z" fill="white"/>
<path d="M18.0688 16.4189C18.1789 16.26 18.1888 16.0492 18.0851 15.8859C17.8084 15.4498 17.4866 15.0436 17.1245 14.6746C16.4516 13.9887 15.6526 13.4447 14.7734 13.0735C13.8941 12.7023 12.9517 12.5112 12 12.5112C11.0483 12.5112 10.1059 12.7023 9.22662 13.0735C8.34735 13.4447 7.54843 13.9887 6.87547 14.6746C6.51342 15.0436 6.19164 15.4498 5.91488 15.8859C5.81121 16.0492 5.82107 16.26 5.93115 16.4189C6.14409 16.7264 6.60756 16.6908 6.81218 16.3776C7.03982 16.0291 7.30125 15.7035 7.59312 15.4061C8.17184 14.8162 8.85888 14.3483 9.61501 14.0291C10.3711 13.7099 11.1816 13.5456 12 13.5456C12.8184 13.5456 13.6289 13.7099 14.385 14.0291C15.1411 14.3483 15.8282 14.8162 16.4069 15.4061C16.6988 15.7035 16.9602 16.0291 17.1878 16.3776C17.3924 16.6909 17.8559 16.7264 18.0688 16.4189Z" fill="white"/>
<path fill-rule="evenodd" clip-rule="evenodd" d="M12 15.6816C11.5929 15.6816 11.1899 15.7633 10.8138 15.9221C10.4377 16.0808 10.096 16.3135 9.80821 16.6069C9.52038 16.9003 9.29206 17.2485 9.13629 17.6318C8.98052 18.0151 8.90034 18.4259 8.90034 18.8408C8.90034 19.2557 8.98052 19.6665 9.13629 20.0498C9.29206 20.4331 9.52038 20.7813 9.80821 21.0747C10.096 21.368 10.4377 21.6008 10.8138 21.7595C11.1899 21.9183 11.5929 22 12 22C12.4071 22 12.8101 21.9183 13.1862 21.7595C13.5623 21.6008 13.904 21.368 14.1918 21.0747C14.4796 20.7813 14.7079 20.4331 14.8637 20.0498C15.0195 19.6665 15.0997 19.2557 15.0997 18.8408C15.0997 18.4259 15.0195 18.0151 14.8637 17.6318C14.7079 17.2485 14.4796 16.9003 14.1918 16.6069C13.904 16.3135 13.5623 16.0808 13.1862 15.9221C12.8101 15.7633 12.4071 15.6816 12 15.6816ZM11.2022 16.8777C11.4551 16.771 11.7262 16.716 12 16.716C12.2738 16.716 12.5449 16.771 12.7978 16.8777C13.0507 16.9845 13.2806 17.141 13.4741 17.3383C13.6677 17.5356 13.8213 17.7699 13.9261 18.0277C14.0308 18.2855 14.0848 18.5618 14.0848 18.8408C14.0847 19.1198 14.0308 19.3961 13.9261 19.6539C13.8213 19.9117 13.6677 20.146 13.4741 20.3433C13.2806 20.5406 13.0507 20.6971 12.7978 20.8039C12.5449 20.9106 12.2738 20.9656 12 20.9656C11.7262 20.9656 11.4551 20.9106 11.2022 20.8039C10.9493 20.6971 10.7194 20.5406 10.5259 20.3433C10.3323 20.146 10.1787 19.9117 10.0739 19.6539C9.96917 19.3961 9.91525 19.1198 9.91525 18.8408C9.91525 18.5618 9.96917 18.2855 10.0739 18.0277C10.1787 17.7699 10.3323 17.5356 10.5259 17.3383C10.7194 17.141 10.9493 16.9845 11.2022 16.8777Z" fill="white"/>
</svg>
