<svg width="24" height="24" viewBox="0 0 24 24" fill="none" xmlns="http://www.w3.org/2000/svg">
<path d="M5.29885 8.58621C5.29885 8.30689 5.52528 8.08046 5.8046 8.08046H12.7586C14.0155 8.08046 15.0345 9.0994 15.0345 10.3563V15.1609C15.0345 15.4402 14.8081 15.6667 14.5287 15.6667H7.57471C6.31779 15.6667 5.29885 14.6477 5.29885 13.3908V8.58621Z" fill="white"/>
<path d="M18.1045 8.2615L15.2241 10.3563V13.3908L18.1588 15.487C18.4109 15.6671 18.761 15.4852 18.7586 15.1754L18.7069 8.5653C18.7045 8.25666 18.3541 8.07997 18.1045 8.2615Z" fill="white"/>
<path fill-rule="evenodd" clip-rule="evenodd" d="M1 12C1 5.92487 5.92487 1 12 1C18.0751 1 23 5.92487 23 12C23 18.0751 18.0751 23 12 23C5.92487 23 1 18.0751 1 12ZM12 1.75862C6.34384 1.75862 1.75862 6.34384 1.75862 12C1.75862 17.6562 6.34384 22.2414 12 22.2414C17.6562 22.2414 22.2414 17.6562 22.2414 12C22.2414 6.34384 17.6562 1.75862 12 1.75862Z" fill="white"/>
</svg>
